<svg width="1000" height="1000" viewBox="0 0 1000 1000" fill="none" xmlns="http://www.w3.org/2000/svg">
<path d="M728.345 361.622L590.533 122.028H552.658L540.595 102.997H522.658L373.314 361.622H728.345Z" fill="#7600AA"/>
<path d="M308.156 361.633L232.906 493.164L150.469 540.727L62.5 693.07L122.719 795.539L373.313 361.633H308.156Z" fill="#5C0095"/>
<path d="M522.659 102.997H403.284L338.377 215.372L365.002 262.247L308.159 361.622H373.315L522.659 102.997Z" fill="#5900AF"/>
<path d="M156.097 811.065L176.222 844.565H524.628L543.941 811.065H156.097Z" fill="#460063"/>
<path d="M765.844 426.852L728.344 361.633H373.313L122.719 795.539L131.844 811.07H543.938L765.844 426.852Z" fill="#8800B8"/>
<path d="M524.628 844.565H546.846L575.815 895.878H594.721L565.971 844.565H859.565L879.346 811.065H543.94L524.628 844.565Z" fill="#2F0031"/>
<path d="M765.844 426.85L543.938 811.068H879.344L933.813 718.912L765.844 426.85Z" fill="#470056"/>
<path d="M496.407 500.508L423.595 373.914L350.47 500.508H496.407ZM452.22 646.258L493.251 717.57H878.533L837.501 646.258H452.22ZM399.595 589.57L285.407 787.32H513.314L399.595 589.57ZM526.189 630.945H828.689L677.751 368.508L526.189 630.945ZM433.626 356.57L548.47 556.258L667.345 350.414L552.501 150.727L433.626 356.57ZM265.845 787.32L422.689 515.727H341.689L184.845 787.32H265.845Z" fill="url(#paint0_radial)"/>
<path d="M495.845 627.466H451.877C448.699 627.466 445.576 626.639 442.814 625.067C440.053 623.494 437.748 621.23 436.127 618.497L414.595 582.278C412.908 579.448 412.018 576.214 412.018 572.919C412.018 569.624 412.908 566.39 414.595 563.56L436.127 527.341C437.748 524.608 440.053 522.344 442.814 520.771C445.576 519.199 448.699 518.372 451.877 518.372H495.814C502.283 518.372 508.252 521.778 511.564 527.341L533.095 563.56C536.533 569.341 536.533 576.528 533.095 582.278L511.564 618.497C509.955 621.234 507.657 623.502 504.899 625.075C502.142 626.649 499.02 627.473 495.845 627.466V627.466Z" fill="#43004D"/>
<defs>
<radialGradient id="paint0_radial" cx="0" cy="0" r="1" gradientUnits="userSpaceOnUse" gradientTransform="translate(469.22 567.383) scale(360.844)">
<stop offset="0.216" stop-color="#FFB3C0"/>
<stop offset="0.491" stop-color="#FD6EE4"/>
<stop offset="1" stop-color="#AC3DFF"/>
</radialGradient>
</defs>
</svg>
