<svg width="1000" height="1000" viewBox="0 0 1000 1000" fill="none" xmlns="http://www.w3.org/2000/svg">
<path d="M184.438 850.031L114.25 62.5H885.75L815.469 849.906L499.531 937.5L184.438 850.031Z" fill="#1572B6"/>
<path d="M500 870.563L755.313 799.782L815.375 126.907H500V870.563Z" fill="#33A9DC"/>
<path d="M500 412.22H627.813L636.625 313.314H500V216.72H742.188L739.875 242.627L716.156 508.814H500V412.22V412.22Z" fill="white"/>
<path d="M500.593 663.06L500.156 663.185L392.593 634.122L385.718 557.091H288.75L302.281 708.747L500.124 763.685L500.593 763.56V663.06V663.06Z" fill="#EBEBEB"/>
<path d="M619.596 504.715L607.971 634.059L500.252 663.121V763.621L698.252 708.746L699.721 692.434L716.502 504.715H619.596V504.715Z" fill="white"/>
<path d="M500.342 216.72V313.314H267.03L265.092 291.595L260.686 242.627L258.374 216.72H500.342V216.72Z" fill="#EBEBEB"/>
<path d="M499.999 412.216V508.81H393.78L391.842 487.091L387.467 438.123L385.155 412.216H499.999V412.216Z" fill="#EBEBEB"/>
</svg>
