<svg width="1000" height="1000" viewBox="0 0 1000 1000" fill="none" xmlns="http://www.w3.org/2000/svg">
<path d="M441.718 125H565.624V692.781C512.733 703.636 458.898 709.236 404.905 709.5C253.593 709.344 174.843 641.75 174.843 511.937C174.843 386.937 258.374 305.687 387.843 305.687C406.001 305.333 424.123 307.436 441.718 311.938V125V125ZM441.718 410.688C428.247 406.244 414.118 404.13 399.937 404.438C337.437 404.438 301.093 442.656 301.093 509.625C301.093 574.844 335.687 610.844 399.155 610.844C413.4 610.84 427.625 609.796 441.718 607.719V410.844V410.688Z" fill="#44B78B"/>
<path d="M762.502 314.347V598.722C762.502 696.628 755.159 743.69 733.659 784.284C711.716 825.559 675.837 857.707 632.409 875.003L517.471 820.847C559.227 806.548 594.2 777.276 615.627 738.69C633.315 703.659 638.909 663.065 638.909 556.284V314.347H762.502Z" fill="#44B78B"/>
<path d="M638.779 125.626H762.654V251.501H638.779V125.626Z" fill="#44B78B"/>
</svg>
