<svg width="1000" height="1000" viewBox="0 0 1000 1000" fill="none" xmlns="http://www.w3.org/2000/svg">
<path d="M666.667 666.666C758.714 666.666 833.333 592.047 833.333 500C833.333 407.952 758.714 333.333 666.667 333.333C574.619 333.333 500 407.952 500 500C500 592.047 574.619 666.666 666.667 666.666Z" fill="#19BCFE"/>
<path fill-rule="evenodd" clip-rule="evenodd" d="M333.333 1000C377.536 1000 419.928 982.441 451.185 951.185C482.441 919.929 500 877.536 500 833.334V666.667H333.333C289.131 666.667 246.738 684.226 215.482 715.483C184.226 746.739 166.667 789.131 166.667 833.334C166.667 877.536 184.226 919.929 215.482 951.185C246.738 982.441 289.131 1000 333.333 1000V1000Z" fill="#09CF83"/>
<path fill-rule="evenodd" clip-rule="evenodd" d="M333.333 666.666H500V333.333H333.333C289.131 333.333 246.738 350.892 215.482 382.149C184.226 413.405 166.667 455.797 166.667 500C166.667 544.202 184.226 586.595 215.482 617.851C246.738 649.107 289.131 666.666 333.333 666.666V666.666Z" fill="#A259FF"/>
<path fill-rule="evenodd" clip-rule="evenodd" d="M333.333 333.333H500V0H333.333C289.131 0 246.738 17.5595 215.482 48.8155C184.226 80.0716 166.667 122.464 166.667 166.667C166.667 210.869 184.226 253.262 215.482 284.518C246.738 315.774 289.131 333.333 333.333 333.333V333.333Z" fill="#F24E1E"/>
<path fill-rule="evenodd" clip-rule="evenodd" d="M666.667 333.333H500V0H666.667C710.869 0 753.262 17.5595 784.518 48.8155C815.774 80.0716 833.333 122.464 833.333 166.667C833.333 210.869 815.774 253.262 784.518 284.518C753.262 315.774 710.869 333.333 666.667 333.333Z" fill="#FF7262"/>
</svg>
