<svg width="1000" height="1000" viewBox="0 0 1000 1000" fill="none" xmlns="http://www.w3.org/2000/svg">
<g clip-path="url(#clip0)">
<path d="M981.141 455.445L544.531 18.8589C519.402 -6.28564 478.621 -6.28564 453.461 18.8589L362.797 109.523L477.809 224.535C504.535 215.503 535.184 221.562 556.488 242.867C577.895 264.308 583.91 295.218 574.66 322.031L685.5 432.875C712.316 423.636 743.258 429.613 764.676 451.066C794.609 480.988 794.609 529.484 764.676 559.425C734.734 589.371 686.238 589.371 656.281 559.425C633.766 536.886 628.203 503.82 639.602 476.082L536.234 372.714L536.223 644.734C543.716 648.439 550.56 653.333 556.488 659.226C586.422 689.148 586.422 737.648 556.488 767.613C526.547 797.543 478.027 797.543 448.129 767.613C418.195 737.648 418.195 689.152 448.129 659.23C455.302 652.053 463.827 646.369 473.211 642.507V367.953C463.814 364.116 455.284 358.429 448.129 351.23C425.449 328.582 419.996 295.304 431.617 267.457L318.242 154.07L18.8672 453.425C-6.28906 478.593 -6.28906 519.378 18.8672 544.527L455.484 981.121C480.621 1006.27 521.395 1006.27 546.562 981.121L981.137 546.554C1006.29 521.398 1006.29 480.589 981.137 455.445" fill="#DE4C36"/>
</g>
<defs>
<clipPath id="clip0">
<rect width="1000" height="1000" fill="white"/>
</clipPath>
</defs>
</svg>
