<svg width="1000" height="1114" viewBox="0 0 1000 1114" fill="none" xmlns="http://www.w3.org/2000/svg">
<path d="M900 0C954.672 0 999.102 43.875 999.988 98.3477L1000 100V1011.11C1000 1065.78 956.113 1110.21 901.652 1111.1L900 1111.11H100C45.3281 1111.11 0.898437 1067.22 0.0117188 1012.77L0 1011.11V100C0 45.3164 43.8867 0.898437 98.3477 0.0117188L100 0H900ZM900 55.5547H100C75.8828 55.5547 56.1797 74.8828 55.5703 98.8555L55.5547 100V1011.11C55.5547 1035.23 74.8828 1054.93 98.8555 1055.54L100 1055.55H900C924.129 1055.55 943.82 1036.23 944.43 1012.26L944.445 1011.11V100C944.445 75.5 924.516 55.5547 900 55.5547V55.5547ZM250 722.227L375 833.336L250 944.449V722.223V722.227ZM361.109 166.668V482.098C416.582 464.043 494.125 444.441 569.445 444.441C638.125 444.441 679.234 471.445 701.625 494.098C748.926 541.949 750.051 602.77 749.988 610.883V611.109L750 944.445H638.891V612.641C638.344 586.707 625.844 555.555 569.445 555.555C457.602 555.555 332.281 611.246 328.562 612.91L328.484 612.945L250 648.5V166.664H361.109V166.668ZM750 166.668C742.5 229.777 716.914 290.277 666.668 347.223H555.555C599.223 289.93 626.641 229.641 638.891 166.668H750Z" fill="#430098"/>
</svg>
