<svg width="1000" height="1000" viewBox="0 0 1000 1000" fill="none" xmlns="http://www.w3.org/2000/svg">
<path d="M184.438 850.031L114.22 62.5H885.782L815.47 849.906L499.532 937.5L184.438 850.031Z" fill="#E44F26"/>
<path d="M500 870.564L755.313 799.782L815.375 126.907H500V870.564Z" fill="#F1662A"/>
<path d="M500 418.965H372.187L363.375 320.059H500V223.465H257.812L260.125 249.403L283.844 515.559H500V418.965V418.965Z" fill="#EBEBEB"/>
<path d="M500 669.811L499.562 669.936L392 640.905L385.125 563.873H288.156L301.688 715.498L499.562 770.436L500 770.311V669.811Z" fill="#EBEBEB"/>
<path d="M499.657 418.968V515.562H618.594L607.407 640.843L499.657 669.906V770.406L697.688 715.499L699.125 699.187L721.813 444.906L724.188 418.968H499.657V418.968Z" fill="white"/>
<path d="M499.657 223.465V320.059H732.969L734.907 298.371L739.313 249.403L741.625 223.465H499.657V223.465Z" fill="white"/>
</svg>
