<svg width="1000" height="1000" viewBox="0 0 1000 1000" fill="none" xmlns="http://www.w3.org/2000/svg">
<path d="M0 0H1000V1000H0V0Z" fill="#F7DF1E"/>
<path d="M262.937 835.672L339.461 789.359C354.227 815.535 367.656 837.684 399.871 837.684C430.75 837.684 450.223 825.605 450.223 778.621V459.098H544.195V779.949C544.195 877.281 487.141 921.586 403.898 921.586C328.723 921.586 285.086 882.652 262.934 835.664" fill="black"/>
<path d="M595.238 825.602L671.753 781.301C691.898 814.195 718.078 838.359 764.39 838.359C803.332 838.359 828.16 818.891 828.16 792.039C828.16 759.82 802.652 748.406 759.691 729.617L736.203 719.539C668.402 690.684 623.429 654.434 623.429 577.91C623.429 507.426 677.128 453.723 761.039 453.723C820.781 453.723 863.742 474.535 894.617 528.906L821.445 575.898C805.332 547.035 787.886 535.625 761.035 535.625C733.511 535.625 716.058 553.078 716.058 575.898C716.058 604.09 733.511 615.508 773.785 632.961L797.277 643.027C877.16 677.266 922.132 712.168 922.132 790.699C922.132 875.285 855.679 921.598 766.402 921.598C679.14 921.598 622.753 879.98 595.234 825.605" fill="black"/>
</svg>
