<svg width="1000" height="1000" viewBox="0 0 1000 1000" fill="none" xmlns="http://www.w3.org/2000/svg">
<g clip-path="url(#clip0)">
<path d="M724.734 347.027L724.367 346.871C724.144 346.804 723.938 346.688 723.766 346.531C723.466 346.209 723.245 345.824 723.118 345.403C722.991 344.982 722.963 344.538 723.035 344.105L743.219 220.851L837.863 315.418L739.434 357.25C739.161 357.359 738.868 357.413 738.574 357.406H738.18C737.987 357.28 737.811 357.131 737.656 356.961C733.993 352.887 729.613 349.52 724.734 347.027V347.027ZM862.016 339.515L963.211 440.601C984.227 461.621 994.754 472.105 998.59 484.261C999.164 486.058 999.633 487.859 1000 489.711L758.152 387.398C758.023 387.345 757.892 387.292 757.762 387.242C756.793 386.851 755.672 386.406 755.672 385.418C755.672 384.425 756.82 383.957 757.785 383.566L758.098 383.433L862.016 339.515ZM995.875 522.156C990.652 531.961 980.469 542.132 963.238 559.371L849.141 673.316L701.574 642.621L700.793 642.464C699.484 642.253 698.102 642.019 698.102 640.847C697.54 634.765 695.732 628.863 692.79 623.51C689.847 618.157 685.834 613.468 681 609.734C680.398 609.132 680.559 608.195 680.738 607.332C680.738 607.203 680.738 607.074 680.793 606.968L708.547 436.769L708.648 436.195C708.805 434.89 709.039 433.379 710.215 433.379C716.161 432.641 721.902 430.727 727.102 427.75C732.302 424.772 736.858 420.79 740.504 416.035C740.738 415.773 740.895 415.488 741.207 415.332C742.043 414.941 743.035 415.332 743.898 415.695L995.852 522.156H995.875V522.156ZM822.906 699.527L635.285 886.941L667.395 689.773L667.449 689.511C667.474 689.255 667.526 689.002 667.605 688.757C667.867 688.132 668.543 687.871 669.199 687.609L669.512 687.476C676.543 684.48 682.762 679.859 687.66 673.996C688.285 673.265 689.043 672.558 690.008 672.429C690.258 672.39 690.516 672.39 690.766 672.429L822.875 699.554L822.902 699.527H822.906ZM595.57 926.609L574.422 947.734L340.617 610.203C340.532 610.079 340.445 609.956 340.355 609.836C339.992 609.339 339.598 608.847 339.68 608.273C339.703 607.855 339.965 607.492 340.254 607.179L340.512 606.839C341.215 605.793 341.82 604.75 342.473 603.629L342.992 602.718L343.07 602.64C343.437 602.015 343.773 601.414 344.402 601.074C344.949 600.812 345.711 600.918 346.309 601.046L605.336 654.406C606.063 654.523 606.742 654.816 607.32 655.265C607.66 655.609 607.738 655.972 607.816 656.39C609.625 663.221 612.989 669.542 617.645 674.858C622.301 680.174 628.123 684.341 634.656 687.035C635.387 687.398 635.074 688.207 634.734 689.066C634.565 689.444 634.434 689.838 634.344 690.242C631.082 710.062 603.094 880.578 595.57 926.609V926.609ZM551.395 970.711C535.809 986.125 526.617 994.285 516.227 997.574C505.981 1000.81 494.988 1000.81 484.742 997.574C472.574 993.711 462.051 983.23 441.031 962.207L206.234 727.668L267.563 632.656C267.822 632.179 268.179 631.761 268.609 631.429C269.262 630.961 270.203 631.171 270.984 631.429C285.061 635.672 300.173 634.907 313.75 629.265C314.453 629.007 315.16 628.824 315.711 629.32C315.984 629.57 316.23 629.847 316.441 630.152L551.395 970.738V970.711V970.711ZM183.598 705.054L129.734 651.253L236.102 605.925C236.374 605.806 236.668 605.744 236.965 605.742C237.852 605.742 238.375 606.628 238.844 607.437C239.914 609.078 241.047 610.679 242.242 612.238L242.578 612.652C242.891 613.097 242.684 613.539 242.371 613.957L183.621 705.054H183.598ZM105.898 627.441L37.7539 559.371C26.1602 547.793 17.7539 539.394 11.9063 532.171L219.105 575.101L219.887 575.23C221.168 575.437 222.582 575.671 222.582 576.871C222.582 578.175 221.039 578.777 219.73 579.269L219.133 579.531L105.898 627.441V627.441ZM0 497.168C0.237029 492.784 1.02714 488.447 2.35156 484.261C6.21484 472.105 16.7109 461.621 37.7539 440.601L124.957 353.492C165.109 411.701 205.369 469.835 245.738 527.894C246.441 528.832 247.223 529.875 246.418 530.656C242.605 534.855 238.793 539.445 236.105 544.429C235.813 545.066 235.363 545.625 234.797 546.043C234.457 546.254 234.094 546.175 233.703 546.097H233.648L0 497.144V497.171V497.168ZM148.301 330.175L265.555 213.05C276.57 217.875 316.676 234.8 352.547 249.925C379.703 261.406 404.453 271.839 412.234 275.226C413.016 275.539 413.723 275.851 414.062 276.632C414.27 277.101 414.168 277.703 414.062 278.199C412.207 286.655 412.483 295.44 414.867 303.762C417.251 312.085 421.668 319.684 427.719 325.875C428.5 326.656 427.719 327.777 427.039 328.742L426.672 329.289L307.617 513.496C307.305 514.019 307.016 514.461 306.492 514.8C305.867 515.191 304.98 515.007 304.246 514.828C299.616 513.616 294.856 512.968 290.07 512.898C285.789 512.898 281.141 513.679 276.441 514.539H276.414C275.895 514.617 275.422 514.722 275.008 514.41C274.546 514.034 274.149 513.585 273.832 513.082L148.301 330.175ZM289.238 189.394L441.035 37.7652C462.051 16.7691 472.574 6.26132 484.738 2.42538C494.985 -0.811064 505.98 -0.811064 516.227 2.42538C528.395 6.26132 538.914 16.7691 559.934 37.7652L592.832 70.6285L484.871 237.644C484.604 238.13 484.239 238.555 483.801 238.894C483.148 239.339 482.234 239.156 481.449 238.894C472.938 236.314 463.926 235.844 455.192 237.526C446.458 239.208 438.265 242.99 431.32 248.546C430.617 249.277 429.57 248.859 428.684 248.468C414.582 242.339 304.926 196.046 289.234 189.398L289.238 189.394ZM615.754 93.5269L715.441 193.097L691.418 341.707V342.097C691.397 342.436 691.327 342.77 691.211 343.089C690.949 343.609 690.426 343.714 689.902 343.871C684.768 345.425 679.933 347.832 675.598 350.992C675.411 351.124 675.236 351.271 675.074 351.433C674.785 351.746 674.5 352.035 674.031 352.086C673.648 352.097 673.266 352.035 672.906 351.902L521.004 287.433L520.719 287.3C519.75 286.91 518.602 286.441 518.602 285.449C517.708 276.992 514.944 268.841 510.508 261.586C509.777 260.386 508.969 259.136 509.594 257.91L615.754 93.5269V93.5269ZM513.094 317.968L655.492 378.214C656.273 378.578 657.137 378.918 657.477 379.726C657.612 380.212 657.612 380.725 657.477 381.211C657.059 383.3 656.695 385.671 656.695 388.074V392.062C656.695 393.054 655.676 393.468 654.734 393.859L654.449 393.964C631.891 403.589 337.746 528.879 337.301 528.879C336.859 528.879 336.387 528.878 335.945 528.437C335.164 527.656 335.945 526.562 336.648 525.566L337.016 525.046L454.035 344.05L454.242 343.738C454.922 342.64 455.707 341.414 456.961 341.414L458.133 341.597C460.797 341.961 463.148 342.3 465.523 342.3C483.277 342.3 499.727 333.668 509.648 318.906C509.883 318.515 510.184 318.164 510.535 317.863C511.238 317.343 512.285 317.605 513.094 317.968V317.968ZM350.016 557.515L670.637 420.933C670.637 420.933 671.105 420.933 671.551 421.379C673.297 423.125 674.785 424.296 676.223 425.394L676.926 425.836C677.582 426.203 678.234 426.617 678.285 427.296C678.285 427.558 678.285 427.714 678.234 427.949L650.766 596.48L650.66 597.16C650.48 598.461 650.297 599.949 649.07 599.949C641.75 600.441 634.66 602.71 628.414 606.559C622.167 610.408 616.953 615.721 613.223 622.039L613.09 622.246C612.727 622.847 612.387 623.418 611.785 623.73C611.238 623.996 610.535 623.89 609.957 623.761L354.273 571.078C354.012 571.027 350.305 557.543 350.016 557.515V557.515Z" fill="url(#paint0_radial)"/>
</g>
<defs>
<radialGradient id="paint0_radial" cx="0" cy="0" r="1" gradientUnits="userSpaceOnUse" gradientTransform="translate(500 -500.003) scale(1000 1000)">
<stop stop-color="#20C6B7"/>
<stop offset="1" stop-color="#4D9ABF"/>
</radialGradient>
<clipPath id="clip0">
<rect width="1000" height="1000" fill="white"/>
</clipPath>
</defs>
</svg>
