<svg width="1000" height="604" viewBox="0 0 1000 604" fill="none" xmlns="http://www.w3.org/2000/svg">
<g clip-path="url(#clip0)">
<path d="M235.957 157.346H424.566V172.338H253.246V285.164H414.352V300.154H253.246V424.027H426.531V439.018H235.957V157.346ZM441.465 157.346H461.504L550.307 281.219L641.074 157.344L764.533 0L561.701 294.238L666.223 439.018H645.396L550.307 307.256L454.822 439.018H434.391L539.697 294.236L441.463 157.346H441.465ZM673.688 172.338V157.344H888.625V172.336H789.604V439.016H772.314V172.338H673.688V172.338ZM0 157.344H21.6113L319.619 603.287L196.469 439.016L18.0742 178.648L17.2891 439.02H0V157.344ZM886.883 419.5C883.35 419.5 880.701 416.766 880.701 413.227C880.701 409.691 883.35 406.953 886.883 406.953C890.457 406.953 893.064 409.689 893.064 413.227C893.064 416.764 890.457 419.5 886.883 419.5ZM903.871 402.996H913.123C913.248 408.006 916.906 411.375 922.289 411.375C928.303 411.375 931.709 407.754 931.709 400.975V358.025H941.129V401.016C941.129 413.227 934.064 420.26 922.373 420.26C911.396 420.26 903.871 413.437 903.871 402.994V402.996ZM953.449 402.449H962.785C963.584 408.217 969.219 411.879 977.336 411.879C984.904 411.879 990.455 407.963 990.455 402.574C990.455 397.943 986.922 395.164 978.891 393.27L971.068 391.375C960.092 388.805 955.09 383.5 955.09 374.574C955.09 363.754 963.92 356.553 977.166 356.553C989.486 356.553 998.486 363.752 999.033 373.984H989.865C988.982 368.385 984.103 364.889 977.039 364.889C969.598 364.889 964.637 368.469 964.637 373.941C964.637 378.277 967.83 380.764 975.736 382.615L982.422 384.258C994.869 387.164 1000 392.217 1000 401.354C1000 412.975 991.002 420.26 976.621 420.26C963.164 420.26 954.121 413.311 953.449 402.447V402.449Z" fill="black"/>
</g>
<defs>
<clipPath id="clip0">
<rect width="1000" height="603.516" fill="white"/>
</clipPath>
</defs>
</svg>
