<svg width="1000" height="1032" viewBox="0 0 1000 1032" fill="none" xmlns="http://www.w3.org/2000/svg">
<path d="M996.125 617.523C990.129 599.362 974.422 586.714 954.109 583.679C944.531 582.249 933.562 582.859 920.582 585.534C897.957 590.202 881.172 591.98 868.922 592.323C915.16 514.257 952.758 425.234 974.402 341.433C1009.4 205.929 990.699 144.198 968.844 116.276C911.004 42.3702 826.617 2.66711 724.812 1.45226C670.504 0.788202 622.828 11.5109 597.957 19.2218C574.801 15.1359 549.902 12.8546 523.777 12.4327C474.805 11.6515 431.535 22.3273 394.563 44.2687C374.094 37.3468 341.242 27.589 303.305 21.3624C214.078 6.71398 142.164 18.128 89.5625 55.2882C25.8672 100.28 -3.66016 178.452 1.80078 287.632C3.53515 322.296 22.9258 427.765 53.457 527.788C71.0039 585.28 89.7148 633.023 109.07 669.702C136.52 721.714 165.891 752.343 198.863 763.343C217.344 769.499 250.922 773.812 286.238 744.398C290.715 749.819 296.688 755.206 304.613 760.21C314.68 766.558 326.988 771.745 339.281 774.82C383.582 785.894 425.078 783.124 460.48 767.601C460.699 773.898 460.867 779.913 461.008 785.109C461.242 793.534 461.477 801.796 461.785 809.523C463.883 861.765 467.438 902.386 477.969 930.808C478.547 932.37 479.324 934.753 480.145 937.28C485.398 953.366 494.184 980.296 516.535 1001.39C539.68 1023.23 567.676 1029.93 593.316 1029.93C606.176 1029.93 618.445 1028.25 629.207 1025.94C667.566 1017.72 711.133 1005.19 742.648 960.319C772.445 917.898 786.93 854.003 789.551 753.327C789.891 750.48 790.203 747.761 790.504 745.171L791.129 739.851L798.148 740.468L799.957 740.589C839.027 742.37 886.801 734.085 916.141 720.456C939.324 709.698 1013.62 670.476 996.125 617.523" fill="black"/>
<path d="M929.32 627.82C813.148 651.785 805.16 612.453 805.16 612.453C927.816 430.449 979.093 199.421 934.847 142.878C814.129 -11.3599 605.164 61.5854 601.676 63.4761L600.554 63.6792C577.601 58.9136 551.918 56.0776 523.047 55.605C470.484 54.7456 430.609 69.3862 400.351 92.3315C400.351 92.3315 27.5779 -61.2388 44.9178 285.472C48.6053 359.23 150.637 843.57 272.332 697.277C316.812 643.781 359.793 598.55 359.793 598.55C381.137 612.73 406.691 619.964 433.48 617.367L435.562 615.601C434.914 622.242 435.211 628.738 436.394 636.429C405.043 671.457 414.258 677.605 351.586 690.507C288.168 703.578 325.422 726.843 349.746 732.929C379.234 740.3 447.453 750.746 493.547 686.218L491.711 693.582C503.992 703.421 512.617 757.578 511.172 806.675C509.726 855.769 508.761 889.476 518.437 915.804C528.121 942.132 537.765 1001.37 620.156 983.718C688.996 968.964 724.672 930.734 729.636 866.96C733.156 821.625 741.129 828.328 741.629 787.792L748.023 768.605C755.394 707.148 749.195 687.32 791.605 696.542L801.918 697.449C833.129 698.867 873.988 692.425 897.969 681.281C949.601 657.32 980.226 617.308 929.312 627.82H929.32" fill="#336791"/>
<path d="M422.172 318.458C411.703 317.001 402.222 318.349 397.426 321.981C394.73 324.024 393.894 326.392 393.668 328.02C393.066 332.337 396.09 337.11 397.949 339.571C403.207 346.54 410.886 351.329 418.488 352.384C419.59 352.54 420.687 352.61 421.777 352.61C434.453 352.61 445.98 342.739 446.996 335.454C448.265 326.329 435.019 320.247 422.172 318.462" fill="white"/>
<path d="M768.984 318.746C767.984 311.594 755.258 309.555 743.18 311.235C731.117 312.914 719.422 318.36 720.398 325.528C721.18 331.102 731.246 340.617 743.16 340.617C744.168 340.617 745.184 340.551 746.207 340.406C754.16 339.305 759.996 334.254 762.77 331.344C766.988 326.906 769.434 321.961 768.984 318.746" fill="white"/>
<path d="M967.977 625.098C963.547 611.704 949.289 607.395 925.602 612.286C855.27 626.801 830.082 616.747 821.813 610.657C876.481 527.375 921.453 426.704 945.715 332.778C957.207 288.286 963.555 246.965 964.074 213.286C964.649 176.321 958.352 149.157 945.367 132.563C893.016 65.6685 816.18 29.7857 723.172 28.8013C659.231 28.0825 605.207 44.4458 594.735 49.0474C572.68 43.563 548.637 40.1958 522.461 39.7661C474.461 38.9888 432.969 50.481 398.617 73.9067C383.696 68.3521 345.133 55.1138 297.973 47.5161C216.442 34.3911 151.653 44.3364 105.418 77.0903C50.2502 116.176 24.7815 186.043 29.7151 284.747C31.3752 317.954 50.2971 420.11 80.1565 517.942C119.461 646.708 162.188 719.602 207.141 734.598C212.403 736.352 218.469 737.579 225.16 737.579C241.559 737.579 261.664 730.188 282.582 705.04C308.096 674.432 334.489 644.568 361.727 615.485C379.399 624.969 398.813 630.266 418.668 630.797C418.707 631.317 418.758 631.836 418.805 632.352C415.387 636.428 412.04 640.563 408.766 644.754C395.008 662.219 392.145 665.856 347.86 674.973C335.262 677.575 301.805 684.469 301.313 707.922C300.782 733.547 340.864 744.309 345.43 745.45C361.344 749.434 376.676 751.399 391.297 751.399C426.856 751.399 458.149 739.711 483.157 717.098C482.387 808.45 486.196 898.465 497.164 925.891C506.149 948.344 528.094 1003.22 597.414 1003.21C607.586 1003.21 618.782 1002.03 631.098 999.387C703.446 983.879 734.864 951.903 747.016 881.407C753.52 843.731 764.68 753.766 769.93 705.508C781.008 708.965 795.27 710.547 810.688 710.543C842.844 710.543 879.949 703.711 903.219 692.911C929.36 680.77 976.532 650.981 967.977 625.098V625.098ZM795.688 299.004C795.449 313.25 793.489 326.184 791.41 339.684C789.172 354.204 786.86 369.215 786.278 387.438C785.703 405.172 787.918 423.61 790.059 441.442C794.387 477.458 798.828 514.536 781.637 551.122C778.781 546.062 776.237 540.832 774.02 535.461C771.883 530.282 767.242 521.961 760.817 510.446C735.821 465.618 677.285 360.641 707.25 317.805C716.176 305.055 738.828 291.946 795.688 299.004V299.004ZM726.766 57.6489C810.102 59.4888 876.024 90.6646 922.696 150.305C958.492 196.051 919.074 404.204 804.961 583.778C803.814 582.319 802.66 580.864 801.5 579.415L800.055 577.61C829.543 528.911 823.778 480.727 818.645 438.008C816.535 420.477 814.543 403.918 815.051 388.364C815.574 371.879 817.754 357.739 819.864 344.067C822.453 327.219 825.09 309.786 824.364 289.235C824.907 287.079 825.125 284.532 824.84 281.508C822.985 261.801 800.485 202.821 754.625 149.438C729.539 120.239 692.957 87.563 643.008 65.5239C664.492 61.0708 693.871 56.9185 726.766 57.6489V57.6489ZM260.446 686.633C237.399 714.344 221.485 709.032 216.25 707.29C182.149 695.915 142.578 623.836 107.692 509.54C77.5042 410.641 59.8635 311.192 58.4651 283.305C54.0588 195.11 75.4378 133.645 122.012 100.614C197.809 46.8638 322.426 79.0357 372.5 95.3521C371.782 96.063 371.032 96.7271 370.321 97.4497C288.149 180.434 290.098 322.215 290.301 330.883C290.293 334.227 290.574 338.961 290.957 345.473C292.371 369.321 295.004 413.704 287.973 463.965C281.442 510.672 295.84 556.387 327.469 589.391C330.715 592.772 334.127 595.989 337.692 599.032C323.614 614.11 293.016 647.454 260.446 686.633V686.633ZM348.254 569.473C322.762 542.872 311.184 505.872 316.485 467.95C323.906 414.856 321.168 368.614 319.696 343.77C319.489 340.293 319.305 337.247 319.199 334.844C331.203 324.2 386.832 294.395 426.504 303.485C444.606 307.629 455.637 319.958 460.223 341.161C483.957 450.938 463.364 496.692 446.817 533.461C443.407 541.036 440.184 548.196 437.434 555.602L435.301 561.329C429.903 575.805 424.879 589.266 421.766 602.047C394.664 601.969 368.301 590.391 348.254 569.469V569.473ZM352.414 717.52C344.5 715.543 337.383 712.11 333.207 709.262C336.696 707.622 342.903 705.387 353.668 703.168C405.766 692.446 413.813 684.875 431.383 662.567C435.41 657.45 439.977 651.653 446.301 644.59L446.309 644.583C455.727 634.036 460.035 635.825 467.848 639.067C474.18 641.684 480.348 649.622 482.848 658.356C484.032 662.481 485.36 670.309 481.012 676.403C444.309 727.793 390.824 727.133 352.414 717.52V717.52ZM625.067 971.239C561.332 984.895 538.766 952.375 523.895 915.2C514.297 891.2 509.578 782.973 512.926 663.454C512.969 661.864 512.742 660.329 512.305 658.883C511.914 656.029 511.318 653.207 510.524 650.438C505.547 633.047 493.418 618.501 478.867 612.469C473.086 610.075 462.477 605.68 449.727 608.942C452.446 597.739 457.16 585.086 462.274 571.387L464.418 565.625C466.832 559.129 469.864 552.399 473.067 545.274C490.383 506.805 514.098 454.114 488.36 335.079C478.719 290.493 446.524 268.719 397.719 273.778C368.461 276.805 341.692 288.61 328.34 295.379C325.469 296.833 322.844 298.239 320.391 299.606C324.117 254.684 338.196 170.731 390.86 117.614C424.02 84.1763 468.18 67.6607 521.985 68.5513C628 70.2857 695.985 124.692 734.352 170.032C767.414 209.098 785.317 248.454 792.461 269.68C738.731 264.215 702.188 274.821 683.664 301.305C643.364 358.915 705.711 470.727 735.676 524.465C741.172 534.313 745.914 542.825 747.406 546.442C757.164 570.09 769.797 585.879 779.02 597.403C781.848 600.934 784.59 604.36 786.676 607.352C770.403 612.043 741.172 622.883 743.836 677.067C741.688 704.254 726.41 831.543 718.649 876.516C708.403 935.93 686.539 958.059 625.067 971.243V971.239ZM891.098 666.801C874.457 674.524 846.61 680.317 820.157 681.563C790.938 682.93 776.063 678.29 772.563 675.434C770.922 641.668 783.489 638.141 796.789 634.407C798.879 633.821 800.918 633.247 802.887 632.559C804.11 633.555 805.449 634.543 806.918 635.512C830.403 651.012 872.289 652.684 931.426 640.477L932.074 640.348C924.098 647.805 910.449 657.813 891.098 666.801Z" fill="white"/>
</svg>
