<svg width="1000" height="997" viewBox="0 0 1000 997" fill="none" xmlns="http://www.w3.org/2000/svg">
<path d="M495.766 0.280273C242.516 0.280273 258.328 110.104 258.328 110.104L258.609 223.886H500.281V258.046H162.621C162.621 258.046 0.566406 239.667 0.566406 495.194C0.566406 750.73 142.012 741.667 142.012 741.667H226.426V623.089C226.426 623.089 221.875 481.644 365.613 481.644H605.309C605.309 481.644 739.977 483.819 739.977 351.491V132.694C739.977 132.694 760.43 0.280273 495.766 0.280273ZM362.508 76.7959C368.219 76.7908 373.875 77.9118 379.152 80.0949C384.429 82.278 389.224 85.4802 393.262 89.5184C397.3 93.5566 400.502 98.3515 402.685 103.629C404.868 108.906 405.99 114.562 405.984 120.272C405.99 125.983 404.868 131.639 402.685 136.916C400.502 142.193 397.3 146.988 393.262 151.027C389.224 155.065 384.429 158.267 379.152 160.45C373.875 162.633 368.219 163.754 362.508 163.749C356.797 163.754 351.141 162.633 345.864 160.45C340.587 158.267 335.792 155.065 331.754 151.027C327.716 146.988 324.513 142.193 322.33 136.916C320.147 131.639 319.026 125.983 319.031 120.272C319.026 114.562 320.147 108.906 322.33 103.629C324.513 98.3515 327.716 93.5566 331.754 89.5184C335.792 85.4802 340.587 82.278 345.864 80.0949C351.141 77.9118 356.797 76.7908 362.508 76.7959V76.7959Z" fill="url(#paint0_linear)"/>
<path d="M502.957 992.679C756.207 992.679 740.395 882.855 740.395 882.855L740.113 769.078H498.438V734.918H836.098C836.098 734.918 998.152 753.297 998.152 497.761C998.152 242.23 856.707 251.293 856.707 251.293H772.293V369.867C772.293 369.867 776.844 511.312 633.106 511.312H393.41C393.41 511.312 258.742 509.136 258.742 641.468V860.269C258.742 860.269 238.293 992.679 502.953 992.679H502.957ZM636.215 916.172C630.504 916.177 624.848 915.056 619.571 912.873C614.294 910.69 609.499 907.487 605.461 903.449C601.423 899.411 598.221 894.616 596.037 889.339C593.854 884.062 592.733 878.406 592.738 872.695C592.733 866.984 593.853 861.328 596.036 856.05C598.219 850.772 601.421 845.977 605.46 841.938C609.498 837.9 614.293 834.697 619.57 832.514C624.848 830.331 630.504 829.209 636.215 829.215C641.926 829.209 647.582 830.33 652.859 832.513C658.136 834.697 662.931 837.899 666.969 841.937C671.007 845.975 674.21 850.77 676.393 856.047C678.576 861.324 679.697 866.98 679.692 872.691C679.697 878.402 678.576 884.058 676.393 889.335C674.21 894.612 671.007 899.407 666.969 903.445C662.931 907.483 658.136 910.686 652.859 912.869C647.582 915.052 641.926 916.173 636.215 916.168V916.172Z" fill="url(#paint1_linear)"/>
<defs>
<linearGradient id="paint0_linear" x1="96.4341" y1="89.5406" x2="590.807" y2="578.982" gradientUnits="userSpaceOnUse">
<stop stop-color="#387EB8"/>
<stop offset="1" stop-color="#366994"/>
</linearGradient>
<linearGradient id="paint1_linear" x1="399.88" y1="403.831" x2="930.78" y2="905.708" gradientUnits="userSpaceOnUse">
<stop stop-color="#FFE052"/>
<stop offset="1" stop-color="#FFC331"/>
</linearGradient>
</defs>
</svg>
