<svg width="1000" height="1000" viewBox="0 0 1000 1000" fill="none" xmlns="http://www.w3.org/2000/svg">
<path d="M500 577.316C543.147 577.316 578.125 542.339 578.125 499.191C578.125 456.044 543.147 421.066 500 421.066C456.853 421.066 421.875 456.044 421.875 499.191C421.875 542.339 456.853 577.316 500 577.316Z" fill="#00D8FF"/>
<path d="M500 678.313C406.098 680.585 312.431 667.927 222.5 640.813C180.957 627.644 142.21 606.899 108.219 579.626C95.2478 570.309 84.446 558.296 76.5544 544.412C68.6629 530.527 63.8684 515.1 62.5 499.188C62.5 447.532 119.25 396.907 214.312 363.782C306.648 334.43 403.123 320.205 500 321.657C595.585 320.322 690.767 334.29 781.937 363.032C821.946 375.787 859.379 395.53 892.5 421.345C905.249 430.227 915.889 441.805 923.666 455.257C931.442 468.709 936.165 483.707 937.5 499.188C937.5 552.876 874.063 607.282 771.875 641.095C683.685 667.325 591.995 679.877 500 678.313V678.313ZM500 359.032C407.316 357.793 315.026 371.317 226.594 399.095C139.094 429.626 99.875 471.376 99.875 499.095C99.875 528.095 142.031 573.688 234.594 605.345C320.627 631.153 410.207 643.166 500 640.938C588.013 642.512 675.748 630.603 760.156 605.626C856.25 573.782 900 528.126 900 499.188C898.423 489.258 894.804 479.762 889.372 471.301C883.939 462.841 876.811 455.598 868.438 450.032C838.805 427.13 805.366 409.633 769.656 398.345C682.438 370.962 591.406 357.69 500 359.032V359.032Z" fill="#00D8FF"/>
<path d="M322.5 888.843C307.921 889.177 293.515 885.64 280.75 878.593C236 852.78 220.5 778.343 239.281 679.437C259.988 584.783 295.868 494.102 345.531 410.905C392.116 327.44 451.755 251.965 522.187 187.343C553.223 159.052 589.027 136.485 627.937 120.687C642.011 114.091 657.363 110.672 672.906 110.672C688.448 110.672 703.801 114.091 717.874 120.687C764.406 147.499 779.812 229.624 758.093 335.03C736.746 424.548 701.798 510.263 654.468 589.187C609.522 671.666 551.761 746.484 483.343 810.843C451.18 840.242 413.854 863.435 373.25 879.249C356.994 885.282 339.836 888.526 322.5 888.843V888.843ZM377.906 429.468C330.534 509.134 296.145 595.834 276.031 686.312C258.75 777.405 275.343 832.187 299.468 846.124C324.468 860.593 385.156 846.874 458.843 782.499C524.157 720.841 579.288 649.224 622.187 570.312C667.529 494.859 701.052 412.91 721.593 327.312C742.031 228.093 724.374 167.343 699.312 152.905C689.919 149.306 679.881 147.695 669.833 148.174C659.785 148.652 649.946 151.211 640.937 155.687C606.302 169.979 574.46 190.269 546.874 215.624C479.583 277.524 422.615 349.778 378.125 429.655L377.906 429.468Z" fill="#00D8FF"/>
<path d="M677.406 889.249C635.062 889.249 581.281 863.624 525.281 815.468C453.615 750.258 392.968 673.887 345.687 589.312C296.648 507.261 261.052 417.891 240.25 324.593C231.228 283.546 229.556 241.224 235.312 199.593C236.643 184.15 241.345 169.186 249.088 155.758C256.831 142.329 267.426 130.763 280.125 121.874C326.593 94.9681 405.437 122.624 485.906 194.062C552.799 257.255 609.606 330.334 654.343 410.749C703.353 490.885 739.322 578.297 760.906 669.718C770.316 712.271 771.767 756.199 765.187 799.281C763.622 815.168 758.639 830.53 750.58 844.311C742.522 858.093 731.578 869.969 718.5 879.124C705.942 886.084 691.759 889.579 677.406 889.249V889.249ZM378.031 570.499C423.388 651.325 481.321 724.417 549.656 787.031C619.937 847.499 675.687 860.499 699.656 846.406C724.656 831.874 743.093 772.562 724.093 676.593C703.277 589.31 668.777 505.871 621.875 429.374C579.182 352.409 524.96 282.433 461.093 221.874C385.343 154.624 323.906 139.593 298.875 154.093C291.073 160.433 284.671 168.322 280.072 177.261C275.473 186.201 272.778 195.997 272.156 206.031C267.187 243.158 268.806 280.871 276.937 317.437C296.947 406.66 331.085 492.112 378.062 570.562L378.031 570.499Z" fill="#00D8FF"/>
</svg>
