<svg width="1000" height="954" viewBox="0 0 1000 954" fill="none" xmlns="http://www.w3.org/2000/svg">
<g clip-path="url(#clip0)">
<path d="M692.894 663.019C729.797 659.199 757.793 627.387 756.519 589.207C755.25 551.031 723.434 520.488 685.258 520.488H682.715C643.262 521.762 612.723 554.848 613.996 594.297C615.269 613.387 622.902 629.93 634.355 641.383C591.09 726.648 524.918 789.004 425.66 841.18C358.215 876.812 288.227 889.539 218.238 880.633C160.973 872.996 116.434 847.547 88.4335 805.547C47.7148 743.191 43.8984 675.742 78.2578 608.297C102.437 559.937 140.609 524.305 164.789 506.488C159.699 489.945 152.062 461.949 148.246 441.59C-36.2735 575.211 -17.1836 755.918 38.8085 841.18C80.8007 904.812 166.062 944.262 260.23 944.262C285.68 944.262 311.129 941.715 336.582 935.355C499.469 903.539 622.906 806.82 692.894 663.019V663.019ZM916.863 505.219C820.148 391.957 677.625 329.602 514.738 329.602H494.379C482.926 306.695 458.746 291.422 432.023 291.422H429.476C390.031 292.695 359.492 325.781 360.762 365.234C362.035 403.41 393.848 433.953 432.023 433.953H434.566C462.562 432.68 486.742 414.863 496.922 390.684H519.828C616.543 390.684 708.164 418.68 790.883 473.402C854.508 515.398 900.32 570.121 925.769 636.293C947.402 689.742 946.129 741.918 923.223 786.461C887.594 853.906 827.785 890.812 748.887 890.812C697.984 890.812 649.629 875.539 624.176 864.086C610.18 876.812 584.726 897.172 566.91 909.902C621.633 935.351 677.625 949.351 731.07 949.351C853.234 949.351 943.586 881.902 977.945 814.457C1014.85 740.645 1012.3 613.387 916.863 505.219V505.219ZM270.41 684.648C271.684 722.828 303.496 753.367 341.672 753.367H344.219C383.668 752.098 414.207 719.008 412.934 679.559C411.664 641.379 379.848 610.84 341.672 610.84H339.129C336.582 610.84 332.762 610.84 330.223 612.109C278.047 525.574 256.414 431.406 264.051 329.598C269.137 253.242 294.59 187.066 339.129 132.344C376.031 85.2578 447.293 62.3516 495.652 61.082C630.539 58.5352 687.801 226.516 691.621 293.965C708.164 297.781 736.16 306.691 755.25 313.055C739.976 106.898 612.723 0 490.562 0C376.031 0 270.41 82.7187 228.414 204.887C169.879 367.777 208.055 524.305 279.316 647.746C272.957 656.652 269.137 670.652 270.41 684.652V684.648Z" fill="#764ABC"/>
</g>
<defs>
<clipPath id="clip0">
<rect width="1000" height="953.125" fill="white"/>
</clipPath>
</defs>
</svg>
