<svg width="1000" height="1000" viewBox="0 0 1000 1000" fill="none" xmlns="http://www.w3.org/2000/svg">
<path d="M815.935 549.126C788.456 549.162 761.346 555.446 736.653 567.501C728.922 554.672 722.952 540.86 718.903 526.439C716.577 515.134 716.039 503.535 717.31 492.064C719.981 479.441 723.446 467 727.685 454.814C727.528 453.22 725.778 445.689 708.185 445.439C690.591 445.189 675.435 448.783 673.81 453.439C670.754 461.944 668.3 470.652 666.466 479.501C651.905 515.424 633.981 549.889 612.935 582.439C601.143 563.108 596.293 540.335 599.185 517.876C601.856 505.254 605.321 492.812 609.56 480.626C609.403 479.033 607.653 471.501 590.06 471.251C572.466 471.001 557.31 474.595 555.685 479.251C554.06 483.908 551.997 494.876 548.341 505.314C544.685 515.751 501.997 611.126 490.81 635.72C485.06 648.22 480.091 658.408 476.591 665.283C476.425 665.729 476.216 666.158 475.966 666.564L471.185 675.689V675.845C468.778 680.158 466.216 684.158 464.935 684.158C462.7 675.229 462.807 665.876 465.247 657.001C471.497 623.908 486.81 572.47 486.653 570.689C486.653 569.72 489.528 560.783 476.747 556.158C473.783 554.747 470.454 554.29 467.219 554.85C463.984 555.409 461.003 556.958 458.685 559.283C457.56 559.283 456.778 562.001 456.778 562.001C456.778 562.001 470.685 504.158 430.247 504.158C414.5 507.325 399.545 513.61 386.263 522.642C372.98 531.674 361.638 543.271 352.903 556.751C342.028 562.658 318.872 575.283 294.091 588.876C284.716 594.158 274.903 599.439 265.81 604.501C265.185 603.876 264.528 603.064 263.903 602.439C214.685 550.001 124.216 513.001 128.122 442.845C129.56 417.283 138.341 350.158 301.841 268.626C436.403 202.314 543.497 220.689 562.028 261.439C588.56 319.626 504.653 427.658 365.622 443.314C350.241 446.434 334.355 446.058 319.14 442.212C303.924 438.366 289.767 431.149 277.716 421.095C270.372 413.095 269.247 412.626 266.528 414.22C262.06 416.626 264.935 423.814 266.528 427.97C271.832 437.568 279.006 446.007 287.626 452.786C296.246 459.565 306.138 464.547 316.716 467.439C371.411 479.258 428.436 473.607 479.747 451.283C564.122 418.689 629.747 328.064 610.497 252.158C591.153 175.126 463.31 149.72 342.31 192.783C266.521 218.285 196.492 258.454 136.216 311.001C69.5596 373.345 59.0283 427.501 63.3408 450.22C78.9658 530.783 189.935 583.189 234.341 622.095C232.335 623.236 230.314 624.35 228.278 625.439C206.06 636.47 121.372 680.751 100.153 727.564C76.1846 780.689 103.997 818.658 122.372 823.783C150.06 830.41 179.126 828.227 205.513 817.538C231.9 806.849 254.291 788.187 269.56 764.158C282.562 744.227 290.554 721.449 292.855 697.763C295.157 674.078 291.7 650.188 282.778 628.126C282.628 627.77 282.416 627.442 282.153 627.158L299.56 616.939C310.136 610.687 320.847 604.664 331.685 598.876C325.179 617.64 321.36 637.23 320.341 657.064C318.132 687.463 327.435 717.581 346.403 741.439C349.29 743.923 352.64 745.81 356.261 746.991C359.882 748.171 363.701 748.62 367.497 748.314C386.247 748.314 394.841 732.689 404.247 714.126C415.747 691.439 426.122 665.064 426.122 665.064C426.122 665.064 413.185 736.345 448.341 736.345C461.122 736.345 474.06 719.72 479.841 711.345V711.501L480.81 709.908L482.872 706.564V706.251C487.997 697.314 499.497 677.001 516.591 643.283C538.653 599.814 559.903 545.47 559.903 545.47C561.953 557.413 564.782 569.209 568.372 580.783C573.519 594.812 579.606 608.478 586.591 621.689C581.466 628.876 578.278 632.876 578.278 632.876L578.435 633.033C574.278 638.47 569.81 644.376 564.841 650.126C550.058 666.379 536.342 683.571 523.778 701.595C521.912 704.622 521.27 708.248 521.984 711.732C522.699 715.216 524.715 718.296 527.622 720.345C534.201 723.768 541.699 725.005 549.028 723.876C560.074 723.253 570.934 720.77 581.153 716.533C591.029 713.057 600.345 708.162 608.81 702.001C617.536 695.956 624.56 687.767 629.206 678.223C633.852 668.678 635.965 658.098 635.341 647.501C634.358 634.152 630.948 621.095 625.278 608.97C626.872 606.72 628.403 604.501 629.903 602.251C647.67 575.732 663.683 548.079 677.841 519.47C679.89 531.413 682.719 543.209 686.31 554.783C690.555 566.906 695.78 578.664 701.935 589.939C681.495 605.664 665.396 626.334 655.153 650.001C645.091 679.095 652.903 692.189 667.653 695.22C675.724 695.776 683.795 694.123 690.997 690.439C701.587 686.958 711.563 681.833 720.56 675.251C730.046 669.653 737.991 661.784 743.681 652.352C749.37 642.921 752.625 632.222 753.153 621.22C752.444 610.238 749.964 599.442 745.81 589.251C772.782 578.714 802.026 575.355 830.685 579.501C906.747 588.439 921.778 635.908 918.903 655.908C917.555 662.998 914.704 669.717 910.543 675.614C906.382 681.511 901.007 686.448 894.778 690.095C889.497 693.439 887.747 694.564 888.216 696.97C888.841 700.501 891.341 700.314 895.872 699.689C907.336 696.126 917.45 689.171 924.882 679.743C932.313 670.315 936.711 658.855 937.497 646.876C939.903 600.001 895.153 548.595 816.028 549.064L815.935 549.126ZM229.06 746.876C203.81 774.376 168.653 784.751 153.466 775.97C137.153 766.595 143.56 725.97 174.56 696.845C192.949 680.292 212.824 665.469 233.935 652.564C237.622 650.314 243.06 647.126 249.56 643.189L251.31 642.22L255.153 639.814C260.692 658.37 261.194 678.065 256.608 696.88C252.023 715.694 242.515 732.949 229.06 746.876V746.876ZM412.841 621.876C404.06 643.283 385.685 698.126 374.497 695.064C364.903 692.501 358.872 650.939 372.591 609.876C379.517 590.109 389.607 571.598 402.466 555.064C416.216 539.72 431.403 534.595 435.06 540.845C431.724 568.81 424.235 596.121 412.841 621.876V621.876ZM564.497 694.439C560.81 696.345 557.31 697.564 555.716 696.689C554.591 696.064 557.31 693.564 557.31 693.564C557.31 693.564 576.341 673.095 583.841 663.845C588.153 658.408 593.216 652.033 598.716 644.814V646.876C598.716 671.314 575.06 687.783 564.528 694.501L564.497 694.439ZM681.497 667.751C678.778 665.845 679.247 659.439 688.372 639.47C694.717 626.645 703.581 615.231 714.435 605.908C716.098 610.638 716.964 615.612 716.997 620.626C717.12 631.299 713.708 641.713 707.292 650.243C700.876 658.774 691.817 664.941 681.528 667.783L681.497 667.751Z" fill="#CD6799"/>
</svg>
