<svg width="1000" height="1000" viewBox="0 0 1000 1000" fill="none" xmlns="http://www.w3.org/2000/svg">
<path d="M675.583 281.759L672.458 298.05C667.625 328.925 669.375 337.759 682.625 349.217L695.417 359.8L682.167 418.884C674.25 454.134 664.542 483.675 658.375 493.384C653.083 501.759 646.917 514.092 645.583 520.717C643.375 528.634 635.875 536.592 624.417 543.634C614.292 549.384 594.417 564.8 580.333 577.175C569.083 587.3 561.333 593.509 557.125 596.175L543.375 607.05C539.839 612.294 537.179 618.078 535.5 624.175C534.542 628.634 535.083 631.592 536.5 633.759C537.875 635.842 540.25 637.3 543.5 638.217C547.347 639.119 551.307 639.442 555.25 639.175C564.169 638.566 572.998 637.002 581.583 634.509C584.5 633.717 586.792 632.967 588.792 632.3C591.875 628.509 599 621.342 611.625 608.884C645.125 575.842 657.917 557.759 644.708 562.634C639.833 564.384 642.042 559.967 650.417 551.134C668.083 533.925 678.208 507.925 699.375 426.384C716.125 362.009 716.125 361.092 728.458 361.092C734.25 361.092 750.625 362.092 750.625 362.092V281.759H713.042H675.583ZM835.542 413.634C832.875 413.634 828.458 417.634 825.833 422.05C821 429.967 826.708 434.8 899.458 480.217C942.667 507.592 977.5 530.925 976.625 532.717C975.75 534.009 940.458 556.967 898.167 583.425C821.417 631.009 821 631.467 828.042 641.175C836.875 652.634 828.042 656.592 927.667 594.425L1000 548.134V513.3L919.292 463.467C875.667 436.134 837.75 414.092 835.542 413.634ZM165.333 418.509C163.125 418.509 125.208 441.009 81.5833 467.884L0 517.717V552.55L81.125 603.259C126.125 631.009 164.042 653.967 165.792 653.967C167.542 653.967 171.083 649.967 174.625 645.134C179.917 636.759 175.458 633.217 100.958 586.05C30 541.509 22.5 535.342 29.5833 530.509C34 527.425 67.5 506.675 103.667 484.217C186.125 433.509 181.708 437.009 175.083 426.425C172.458 422.05 168 418.092 165.375 418.509H165.333ZM527.167 419.467C515 419.384 488.833 437.925 410.5 501.884C407.125 509.925 406.833 515.467 408.375 519.05C409.375 521.509 411.208 523.217 413.75 524.467C416.25 525.717 419.5 526.467 423.083 526.759C430.208 527.384 438.625 526.259 445.417 524.925L450 523.884C451.569 521.78 453.629 520.092 456 518.967C460.833 516.3 481.125 497.8 501.417 477.967C537.125 441.8 545.5 425.467 530.958 420.175C529.765 419.701 528.492 419.46 527.208 419.467H527.167ZM618.667 444.592C607.958 444.884 588.667 457.3 555.625 483.675C539.042 497.134 528.542 504.384 522.917 505.884L501.083 523.134C492.875 538.134 491.667 547.425 493.833 552.55C494.376 553.815 495.163 554.959 496.15 555.917C497.137 556.876 498.304 557.629 499.583 558.134C502.767 559.391 506.161 560.027 509.583 560.009C517.762 559.922 525.891 558.73 533.75 556.467C537.846 555.368 541.892 554.089 545.875 552.634L547.083 552.134L549.292 550.967C553.458 545.592 563.042 535.467 575.042 523.8C612.958 487.217 632.333 461.217 628.375 451.509C626.583 446.8 623.5 444.425 618.667 444.592V444.592ZM517.667 489.592C514.583 489.925 507.667 495.259 495.208 506.175C477.208 522.092 457.583 531.259 450.792 527.175C449.213 527.532 447.63 527.865 446.042 528.175C439.125 529.55 430.5 530.675 422.792 530.05C419.16 529.83 415.6 528.941 412.292 527.425C409.171 525.999 406.681 523.479 405.292 520.342C403.75 516.592 403.75 511.925 405.5 505.967L378.417 528.217L317.125 578.925V661.134L517.958 502.925C517.919 501.193 518.144 499.465 518.625 497.8C520.167 492.217 520.083 489.384 517.667 489.634V489.592ZM604.083 516.217C601.042 516.217 595.958 520.509 587.833 529.134C576.792 540.925 559.417 552.342 550.208 554.675L548.792 555.425C547.28 556.05 545.752 556.633 544.208 557.175C541.708 558.009 538.458 559.009 534.708 560.009C527.208 562.05 517.875 563.925 509.542 563.717C505.613 563.712 501.722 562.948 498.083 561.467C494.654 560.053 491.905 557.365 490.417 553.967C488 548.175 488.958 540.05 494.25 528.509L317.083 668.051V718.259H394.917L560 588.592C564.292 583.842 570.75 577.342 579.458 569.217C602.792 547.592 608.083 540.134 608.083 529.092C608.083 520.509 607.125 516.175 604.083 516.175V516.217ZM643.375 597.467L629.25 611.55C621.333 619.05 607.208 628.3 597.542 632.259L595.625 633.092L595.5 633.3L595.083 633.717C594.708 634.009 594.542 634.05 594.25 634.175C590.391 635.636 586.471 636.929 582.5 638.05C573.672 640.62 564.591 642.227 555.417 642.842C551.079 643.12 546.724 642.741 542.5 641.717C538.834 640.91 535.598 638.772 533.417 635.717C531.417 632.634 530.833 628.509 531.958 623.425C532.853 619.806 534.182 616.309 535.917 613.009L402.708 718.259H579.875L601.042 694.009C630.125 660.092 643.375 635.842 643.375 615.092V597.467Z" fill="black"/>
</svg>
