<svg width="702" height="493" viewBox="0 0 702 493" fill="none" xmlns="http://www.w3.org/2000/svg">
<path d="M94.4213 392.85H118.456L177.684 369.66C177.684 369.66 219.744 352.482 216.311 385.12C212.877 417.759 206.868 461.563 206.868 461.563C206.868 461.563 187.984 452.974 177.684 455.551C167.383 458.127 174.25 403.157 174.25 403.157C174.25 403.157 90.1294 443.526 82.404 438.372C74.6787 433.219 72.9619 397.145 72.9619 397.145L94.4213 392.85Z" fill="#030303"/>
<path opacity="0.1" d="M94.4213 392.85H118.456L177.684 369.66C177.684 369.66 219.744 352.482 216.311 385.12C212.877 417.759 206.868 461.563 206.868 461.563C206.868 461.563 187.984 452.974 177.684 455.551C167.383 458.127 174.25 403.157 174.25 403.157C174.25 403.157 90.1294 443.526 82.404 438.372C74.6787 433.219 72.9619 397.145 72.9619 397.145L94.4213 392.85Z" fill="#3DDC84"/>
<path d="M132.288 317.536L161.375 359.353L229.186 416.041C229.186 416.041 291.848 430.642 283.264 440.949C274.68 451.256 222.319 430.642 222.319 430.642C222.319 430.642 144.207 373.954 141.632 369.66C139.057 365.365 110.73 324.997 110.73 324.997L132.288 317.536Z" fill="#FFE2AB"/>
<path opacity="0.1" d="M132.288 317.536L161.375 359.353L229.186 416.041C229.186 416.041 291.848 430.642 283.264 440.949C274.68 451.256 222.319 430.642 222.319 430.642C222.319 430.642 144.207 373.954 141.632 369.66C139.057 365.365 110.73 324.997 110.73 324.997L132.288 317.536Z" fill="#3DDC84"/>
<path d="M115.022 283.769L133.907 320.702C133.907 320.702 129.615 338.739 122.748 340.457C115.881 342.175 86.6959 318.125 86.6959 318.125L115.022 283.769Z" fill="#D0CDE1"/>
<path opacity="0.1" d="M115.022 283.769L133.907 320.702C133.907 320.702 129.615 338.739 122.748 340.457C115.881 342.175 86.6959 318.125 86.6959 318.125L115.022 283.769Z" fill="#3DDC84"/>
<path d="M345.402 373.728L350.98 396.752C351.043 397.009 351.033 397.278 350.953 397.53L325.648 476.654C325.548 476.967 325.344 477.237 325.069 477.418C324.794 477.598 324.466 477.679 324.138 477.647C323.811 477.615 323.505 477.471 323.271 477.24C323.037 477.009 322.889 476.705 322.851 476.378L319.351 445.554C319.328 445.35 319.349 445.142 319.412 444.946L342.639 373.621C342.736 373.323 342.927 373.066 343.184 372.887C343.44 372.708 343.748 372.617 344.061 372.629C344.373 372.642 344.673 372.755 344.915 372.954C345.158 373.152 345.328 373.424 345.402 373.728Z" fill="#030303"/>
<path d="M343.35 375.672L348.5 395.427L326.182 467.576L321.032 445.244L343.35 375.672Z" fill="#3DDC84"/>
<path d="M230.903 483.036C231.761 485.612 320.174 482.177 321.032 481.318C321.781 480.242 322.414 479.091 322.921 477.882C323.728 476.164 324.466 474.447 324.466 474.447L321.032 446.635L233.478 443.526C233.478 443.526 231.289 467.094 230.843 477.882C230.731 480.605 230.731 482.52 230.903 483.036Z" fill="#030303"/>
<path opacity="0.1" d="M309.874 450.397L311.59 474.447H272.963V450.397H309.874Z" fill="#3DDC84"/>
<path opacity="0.1" d="M260.088 458.127L260.318 458.081L259.229 468.434H237.77V458.127H260.088Z" fill="#3DDC84"/>
<path d="M127.898 271.744C149.231 271.744 166.525 254.44 166.525 233.093C166.525 211.747 149.231 194.442 127.898 194.442C106.565 194.442 89.271 211.747 89.271 233.093C89.271 254.44 106.565 271.744 127.898 271.744Z" fill="#FFE2AB"/>
<path d="M125.323 267.45C125.323 267.45 112.447 289.781 109.872 301.806C107.297 313.831 71.2452 277.757 71.2452 277.757L66.5242 265.302C66.5242 265.302 100.43 249.413 97.8549 236.529C95.2797 223.645 125.323 267.45 125.323 267.45Z" fill="#FFE2AB"/>
<path d="M132.19 334.445L167.383 380.826L251.504 443.526C251.504 443.526 312.449 456.41 298.715 465.858C284.981 475.306 245.495 457.269 245.495 457.269C245.495 457.269 160.516 411.746 142.49 392.85C124.464 373.954 90.9878 342.175 90.9878 342.175L132.19 334.445Z" fill="#FFE2AB"/>
<path d="M84.9791 406.593L95.2796 422.912L156.754 403.56C170.242 399.314 185.033 400.876 196.997 408.418C207.727 415.182 214.594 425.918 199.143 441.808C168.242 473.588 147.641 456.409 147.641 456.409C147.641 456.409 43.7771 505.367 26.6096 481.318C9.44209 457.268 8.58374 445.244 8.58374 445.244C8.58374 445.244 74.6786 404.016 84.9791 406.593Z" fill="#030303"/>
<path d="M213.735 463.281C213.735 463.281 241.203 481.318 208.585 489.907C175.967 498.496 151.932 486.471 151.932 486.471C151.932 486.471 123.606 486.471 123.606 471.87C123.606 457.268 133.048 455.551 133.048 455.551L162.233 459.845C162.233 459.845 197.426 450.397 213.735 463.281Z" fill="#D0CDE1"/>
<path d="M159.585 223.371C162.214 224.543 164.821 225.931 167.68 226.272C170.538 226.612 173.793 225.614 175.145 223.071C175.876 221.698 175.959 220.083 175.993 218.527C176.097 213.811 175.756 208.712 172.769 205.062C170.868 202.739 168.093 201.275 166.125 199.008C164.716 197.384 163.777 195.416 162.767 193.517C158.94 186.325 153.274 179.414 145.399 177.34C142.111 176.474 138.662 176.517 135.262 176.565L115.431 176.845C112.222 176.89 108.964 176.943 105.892 177.872C99.5088 179.803 94.8614 185.174 90.6051 190.31C87.4207 194.153 84.2279 198.036 81.838 202.417C78.4116 208.812 76.679 215.978 76.8054 223.233C76.7788 225.093 77.0189 226.948 77.5183 228.74C78.1025 230.384 78.8263 231.975 79.6818 233.495C83.4006 240.804 85.6088 249.934 81.4206 256.984C88.6959 254.01 95.8942 250.111 100.693 243.884C102.84 241.098 104.524 237.837 107.385 235.793C110.246 233.749 114.908 233.572 116.744 236.572C117.375 237.785 117.7 239.135 117.691 240.503C117.825 242.755 117.821 245.094 118.775 247.138C119.729 249.182 122.002 250.831 124.173 250.219C127.91 249.166 127.552 243.427 130.431 240.819C132.617 238.839 135.989 239.218 138.798 238.319C142.07 237.272 144.525 234.435 145.924 231.295C146.988 228.909 146.972 222.664 148.984 221.371C151.508 219.751 157.246 222.327 159.585 223.371Z" fill="#030303"/>
<path d="M63.4578 261.228C65.1955 260.764 67.025 260.769 68.7603 261.242C74.2704 262.722 86.6226 266.64 89.271 272.603C92.7045 280.333 104.722 292.358 104.722 292.358C104.722 292.358 121.031 308.677 117.597 319.843C114.164 331.009 101.288 343.892 101.288 343.892C101.288 343.892 104.722 397.145 87.5543 410.887C70.3867 424.63 63.5198 415.182 63.5198 428.066C63.5198 440.949 10.3005 481.318 0 456.41C0 456.41 5.15026 410.028 3.4335 393.709C1.74151 377.625 4.2185 277.276 63.4578 261.228Z" fill="#D0CDE1"/>
<path d="M90.9878 282.91C90.9878 282.91 143.349 321.561 133.907 337.88C133.907 337.88 102.147 353.341 95.2797 352.482C88.4127 351.623 61.803 321.561 54.936 318.984C48.069 316.408 44.6355 270.026 90.9878 282.91Z" fill="#D0CDE1"/>
<path d="M324.926 197.439C348.345 197.439 367.33 178.442 367.33 155.009C367.33 131.575 348.345 112.578 324.926 112.578C301.506 112.578 282.521 131.575 282.521 155.009C282.521 178.442 301.506 197.439 324.926 197.439Z" fill="#3DDC84"/>
<path d="M675.165 99.9022H437.537V50.1475H675.165V99.9022ZM438.584 98.8547H674.118V51.1949H438.584V98.8547Z" fill="#3DDC84"/>
<path d="M657.893 60.0986H421.312V108.806H657.893V60.0986Z" fill="white"/>
<path d="M271.758 13.617C273.781 13.617 275.422 11.9756 275.422 9.95085C275.422 7.92608 273.781 6.28467 271.758 6.28467C269.734 6.28467 268.094 7.92608 268.094 9.95085C268.094 11.9756 269.734 13.617 271.758 13.617Z" fill="white"/>
<path d="M284.319 13.617C286.343 13.617 287.983 11.9756 287.983 9.95085C287.983 7.92608 286.343 6.28467 284.319 6.28467C282.296 6.28467 280.656 7.92608 280.656 9.95085C280.656 11.9756 282.296 13.617 284.319 13.617Z" fill="white"/>
<path d="M296.881 13.617C298.905 13.617 300.545 11.9756 300.545 9.95085C300.545 7.92608 298.905 6.28467 296.881 6.28467C294.858 6.28467 293.217 7.92608 293.217 9.95085C293.217 11.9756 294.858 13.617 296.881 13.617Z" fill="white"/>
<path d="M702 287.006H261.29V0H702V287.006ZM262.336 285.959H700.953V1.04747H262.336V285.959Z" fill="#3DDC84"/>
<path d="M701.477 15.8875H261.813V16.9349H701.477V15.8875Z" fill="#3DDC84"/>
<path d="M272.804 12.5697C271.976 12.5697 271.167 12.324 270.478 11.8636C269.79 11.4032 269.253 10.7488 268.936 9.98321C268.619 9.21761 268.536 8.37517 268.698 7.56241C268.859 6.74966 269.258 6.00309 269.844 5.41713C270.429 4.83116 271.175 4.43212 271.988 4.27045C272.8 4.10878 273.642 4.19176 274.407 4.50888C275.172 4.826 275.826 5.36303 276.286 6.05205C276.746 6.74107 276.992 7.55114 276.992 8.37982C276.99 9.49065 276.549 10.5556 275.764 11.3411C274.979 12.1266 273.915 12.5684 272.804 12.5697ZM272.804 5.23741C272.183 5.23741 271.576 5.42171 271.06 5.767C270.543 6.11229 270.141 6.60308 269.903 7.17728C269.665 7.75147 269.603 8.38331 269.724 8.99287C269.846 9.60244 270.145 10.1624 270.584 10.6018C271.023 11.0413 271.583 11.3406 272.192 11.4618C272.801 11.5831 273.432 11.5209 274.006 11.283C274.58 11.0452 275.071 10.6424 275.416 10.1256C275.761 9.60888 275.945 9.00133 275.945 8.37982C275.944 7.5467 275.613 6.74798 275.024 6.15887C274.435 5.56976 273.637 5.23838 272.804 5.23741Z" fill="#3DDC84"/>
<path d="M285.366 12.5697C284.538 12.5697 283.729 12.324 283.04 11.8636C282.351 11.4032 281.815 10.7488 281.498 9.98321C281.181 9.21761 281.098 8.37517 281.26 7.56241C281.421 6.74966 281.82 6.00309 282.405 5.41713C282.991 4.83116 283.737 4.43212 284.549 4.27045C285.362 4.10878 286.204 4.19176 286.969 4.50888C287.734 4.826 288.388 5.36303 288.848 6.05205C289.308 6.74107 289.554 7.55114 289.554 8.37982C289.552 9.49065 289.111 10.5556 288.326 11.3411C287.541 12.1266 286.476 12.5684 285.366 12.5697ZM285.366 5.23741C284.745 5.23741 284.138 5.42171 283.622 5.767C283.105 6.11229 282.703 6.60308 282.465 7.17728C282.227 7.75147 282.165 8.38331 282.286 8.99287C282.407 9.60244 282.707 10.1624 283.146 10.6018C283.585 11.0413 284.144 11.3406 284.754 11.4618C285.363 11.5831 285.994 11.5209 286.568 11.283C287.142 11.0452 287.632 10.6424 287.978 10.1256C288.323 9.60888 288.507 9.00133 288.507 8.37982C288.506 7.5467 288.175 6.74798 287.586 6.15887C286.997 5.56976 286.199 5.23838 285.366 5.23741Z" fill="#3DDC84"/>
<path d="M297.928 12.5697C297.1 12.5697 296.291 12.324 295.602 11.8636C294.913 11.4032 294.377 10.7488 294.06 9.98322C293.743 9.21762 293.66 8.37517 293.821 7.56242C293.983 6.74966 294.382 6.0031 294.967 5.41713C295.553 4.83116 296.299 4.43212 297.111 4.27045C297.924 4.10878 298.765 4.19176 299.531 4.50888C300.296 4.826 300.95 5.36302 301.41 6.05204C301.87 6.74106 302.115 7.55113 302.115 8.37981C302.114 9.49064 301.673 10.5556 300.888 11.3411C300.103 12.1266 299.038 12.5684 297.928 12.5697ZM297.928 5.23741C297.307 5.23741 296.7 5.42171 296.183 5.767C295.667 6.11229 295.265 6.60307 295.027 7.17727C294.789 7.75147 294.727 8.3833 294.848 8.99287C294.969 9.60243 295.268 10.1624 295.708 10.6018C296.147 11.0413 296.706 11.3406 297.316 11.4618C297.925 11.5831 298.556 11.5209 299.13 11.283C299.704 11.0452 300.194 10.6424 300.539 10.1256C300.884 9.60888 301.069 9.00132 301.069 8.37982C301.068 7.5467 300.737 6.74798 300.148 6.15887C299.559 5.56977 298.761 5.23838 297.928 5.23741Z" fill="#3DDC84"/>
<path d="M400.373 16.4111H399.326V286.889H400.373V16.4111Z" fill="#3DDC84"/>
<path d="M526.255 149.395H449.314V159.87H526.255V149.395Z" fill="#3DDC84"/>
<path d="M647.163 149.395H570.221V159.87H647.163V149.395Z" fill="#3DDC84"/>
<path d="M530.966 155.156H452.978V143.634H530.966V155.156ZM454.025 154.109H529.919V144.681H454.025V154.109Z" fill="#3DDC84"/>
<path d="M526.255 230.574H449.314V241.049H526.255V230.574Z" fill="#3DDC84"/>
<path d="M530.966 236.335H452.978V224.813H530.966V236.335ZM454.025 235.288H529.919V225.86H454.025V235.288Z" fill="#3DDC84"/>
<path d="M647.424 188.937H449.576V199.412H647.424V188.937Z" fill="#3DDC84"/>
<path d="M652.135 195.746H453.24V184.224H652.135V195.746ZM454.286 194.698H651.088V185.271H454.286V194.698Z" fill="#3DDC84"/>
<path d="M651.873 155.156H573.885V143.634H651.873V155.156ZM574.932 154.109H650.827V144.681H574.932V154.109Z" fill="#3DDC84"/>
<path d="M332.102 186.342C323.586 186.342 315.261 183.815 308.181 179.081C301.1 174.347 295.581 167.618 292.322 159.746C289.064 151.873 288.211 143.211 289.872 134.853C291.534 126.496 295.634 118.819 301.656 112.794C307.678 106.768 315.35 102.665 323.702 101.003C332.054 99.3403 340.711 100.193 348.579 103.454C356.447 106.715 363.171 112.237 367.902 119.322C372.634 126.408 375.159 134.737 375.159 143.259C375.146 154.681 370.605 165.632 362.533 173.709C354.462 181.786 343.517 186.329 332.102 186.342ZM332.102 101.48C323.844 101.48 315.772 103.931 308.906 108.521C302.039 113.112 296.688 119.637 293.528 127.271C290.368 134.905 289.541 143.305 291.152 151.409C292.763 159.513 296.739 166.957 302.579 172.8C308.418 178.643 315.857 182.622 323.956 184.234C332.056 185.846 340.451 185.019 348.08 181.856C355.709 178.694 362.23 173.34 366.818 166.469C371.405 159.599 373.854 151.521 373.854 143.259C373.841 132.182 369.439 121.563 361.611 113.731C353.784 105.899 343.171 101.493 332.102 101.48Z" fill="#3DDC84"/>
<path d="M324.522 159.055C326.741 159.055 328.539 157.257 328.539 155.039C328.539 152.821 326.741 151.022 324.522 151.022C322.304 151.022 320.506 152.821 320.506 155.039C320.506 157.257 322.304 159.055 324.522 159.055Z" fill="white"/>
<path d="M313.277 163.024L312.388 162.797C305.787 161.13 302 158.295 302 155.03C302 151.763 305.789 148.93 312.388 147.263L313.277 147.038L313.527 147.918C314.194 150.221 315.049 152.466 316.083 154.629L316.274 155.03L316.083 155.43C315.048 157.597 314.191 159.843 313.527 162.147L313.277 163.024ZM311.979 149.31C306.964 150.723 303.883 152.879 303.883 155.03C303.883 157.176 306.961 159.334 311.979 160.745C312.593 158.792 313.336 156.882 314.195 155.03C313.329 153.175 312.589 151.264 311.979 149.31ZM335.766 163.024L335.518 162.142C334.849 159.838 333.994 157.593 332.96 155.428L332.769 155.03L332.96 154.627C333.995 152.465 334.848 150.217 335.518 147.913L335.766 147.036L336.655 147.261C343.258 148.928 347.043 151.761 347.043 155.03C347.043 158.297 343.256 161.13 336.655 162.797L335.766 163.024ZM334.843 155.03C335.743 156.978 336.493 158.895 337.064 160.745C342.082 159.334 345.162 157.176 345.162 155.03C345.162 152.879 342.084 150.726 337.064 149.31C336.45 151.264 335.709 153.174 334.843 155.03Z" fill="white"/>
<path d="M311.965 149.301L311.718 148.424C309.859 141.881 310.422 137.194 313.264 135.561C316.042 133.952 320.513 135.853 325.195 140.657L325.834 141.314L325.195 141.969C323.532 143.698 322.012 145.56 320.65 147.535L320.396 147.9L319.955 147.936C317.56 148.124 315.184 148.507 312.852 149.081L311.965 149.301ZM315.525 136.861C315.021 136.861 314.575 136.971 314.2 137.187C312.337 138.261 312.008 141.998 313.291 147.042C315.295 146.599 317.318 146.282 319.357 146.104C320.537 144.43 321.824 142.835 323.211 141.327C320.279 138.477 317.512 136.861 315.525 136.861ZM333.518 175.075C330.845 175.075 327.412 173.059 323.848 169.401L323.211 168.746L323.848 168.093C325.511 166.361 327.031 164.497 328.395 162.52L328.647 162.16L329.083 162.117C331.479 161.933 333.856 161.551 336.189 160.977L337.078 160.752L337.327 161.631C339.177 168.17 338.617 172.863 335.779 174.497C335.09 174.887 334.31 175.087 333.518 175.075ZM325.834 168.73C328.764 171.581 331.534 173.199 333.518 173.199C334.024 173.199 334.47 173.086 334.843 172.872C336.709 171.797 337.039 168.053 335.752 163.008C333.75 163.454 331.725 163.773 329.682 163.951C328.507 165.628 327.221 167.224 325.834 168.73Z" fill="white"/>
<path d="M337.078 149.301L336.189 149.079C333.856 148.503 331.479 148.12 329.083 147.933L328.647 147.895L328.395 147.531C327.033 145.554 325.513 143.692 323.848 141.964L323.211 141.309L323.848 140.657C328.528 135.855 332.996 133.954 335.779 135.561C338.619 137.196 339.184 141.883 337.327 148.424L337.078 149.301ZM329.682 146.104C331.828 146.295 333.862 146.617 335.752 147.042C337.037 141.998 336.709 138.261 334.843 137.185C332.989 136.112 329.5 137.754 325.834 141.327C327.22 142.835 328.507 144.428 329.682 146.104ZM315.525 175.075C314.733 175.086 313.953 174.887 313.264 174.497C310.422 172.863 309.859 168.172 311.716 161.631L311.959 160.752L312.847 160.977C315.016 161.523 317.406 161.908 319.953 162.117L320.389 162.16L320.644 162.52C322.003 164.496 323.524 166.361 325.189 168.093L325.828 168.746L325.189 169.401C321.627 173.061 318.193 175.075 315.525 175.075ZM313.291 163.011C312.008 168.055 312.337 171.799 314.2 172.875C316.056 173.932 319.534 172.301 323.211 168.73C321.825 167.222 320.537 165.627 319.357 163.953C317.316 163.773 315.29 163.458 313.291 163.011Z" fill="white"/>
<path d="M324.523 164.192C322.977 164.192 321.391 164.126 319.798 163.994L319.357 163.955L319.102 163.591C318.204 162.299 317.359 160.971 316.569 159.611C315.785 158.246 315.056 156.851 314.384 155.428L314.195 155.03L314.384 154.627C315.057 153.205 315.784 151.81 316.569 150.446C317.35 149.105 318.202 147.764 319.102 146.464L319.357 146.104L319.798 146.063C322.941 145.8 326.1 145.8 329.243 146.063L329.68 146.106L329.934 146.466C331.733 149.051 333.314 151.781 334.659 154.629L334.846 155.032L334.659 155.43C333.318 158.28 331.737 161.011 329.934 163.593L329.68 163.958L329.243 163.996C327.655 164.124 326.066 164.192 324.523 164.192ZM320.396 162.158C323.175 162.367 325.87 162.367 328.647 162.158C330.197 159.888 331.575 157.505 332.769 155.03C331.579 152.552 330.201 150.169 328.647 147.902C325.901 147.69 323.142 147.69 320.396 147.902C318.841 150.168 317.463 152.551 316.274 155.03C317.471 157.504 318.849 159.886 320.396 162.158Z" fill="white"/>
</svg>
