<svg width="531" height="557" viewBox="0 0 531 557" fill="none" xmlns="http://www.w3.org/2000/svg">
<path d="M311.618 0H83.2285V55.5199H311.618V0Z" fill="white"/>
<path d="M89.221 49.525H305.625V5.99493H89.221V49.525Z" fill="#34A365"/>
<path d="M130.439 44.3438C139.595 44.3438 147.017 36.919 147.017 27.76C147.017 18.6009 139.595 11.1761 130.439 11.1761C121.283 11.1761 113.861 18.6009 113.861 27.76C113.861 36.919 121.283 44.3438 130.439 44.3438Z" fill="#34A365"/>
<path d="M280.985 21.2706H170.081V24.8758H280.985V21.2706Z" fill="#34A365"/>
<path d="M280.985 30.6441H170.081V34.2493H280.985V30.6441Z" fill="#34A365"/>
<path d="M228.389 93.4355H0V148.955H228.389V93.4355Z" fill="white"/>
<path d="M5.99243 142.961H222.397V99.4305H5.99243V142.961Z" fill="#4AFF9B"/>
<path d="M47.2105 137.779C56.3661 137.779 63.7882 130.355 63.7882 121.196C63.7882 112.036 56.3661 104.612 47.2105 104.612C38.0548 104.612 30.6328 112.036 30.6328 121.196C30.6328 130.355 38.0548 137.779 47.2105 137.779Z" fill="white"/>
<path d="M197.756 114.706H86.8528V118.311H197.756V114.706Z" fill="white"/>
<path d="M197.756 124.08H86.8528V127.685H197.756V124.08Z" fill="white"/>
<path d="M228.389 186.871H0V242.391H228.389V186.871Z" fill="white"/>
<path d="M5.99243 236.396H222.397V192.866H5.99243V236.396Z" fill="#4AFF9B"/>
<path d="M47.2105 231.215C56.3661 231.215 63.7882 223.79 63.7882 214.631C63.7882 205.472 56.3661 198.047 47.2105 198.047C38.0548 198.047 30.6328 205.472 30.6328 214.631C30.6328 223.79 38.0548 231.215 47.2105 231.215Z" fill="white"/>
<path d="M197.756 208.142H86.8528V211.747H197.756V208.142Z" fill="white"/>
<path d="M197.756 217.515H86.8528V221.12H197.756V217.515Z" fill="white"/>
<path d="M357.484 83.8778L372.227 120.181L381.299 145.14L405.115 109.971C405.115 109.971 390.372 95.2226 390.372 75.9364L357.484 83.8778Z" fill="#FFE2AB"/>
<path d="M313.256 469.603L306.451 503.637L325.73 519.52L333.669 469.603H313.256Z" fill="#FFE2AB"/>
<path d="M424.394 461.662L422.126 502.504L441.405 499.099L443.673 463.93L424.394 461.662Z" fill="#FFE2AB"/>
<path d="M373.928 102.597C388.334 102.597 400.012 90.9145 400.012 76.5036C400.012 62.0927 388.334 50.4104 373.928 50.4104C359.522 50.4104 347.844 62.0927 347.844 76.5036C347.844 90.9145 359.522 102.597 373.928 102.597Z" fill="#FFE2AB"/>
<path d="M433.467 184.847C433.467 184.847 442.539 264.261 435.735 264.261C428.93 264.261 396.042 257.454 389.238 251.782C382.434 246.109 360.886 248.378 360.886 248.378C360.886 248.378 345.009 260.858 337.071 254.051C329.132 247.244 342.741 167.83 342.741 167.83L339.339 119.047C339.339 119.047 354.082 114.509 360.886 121.316L362.962 118.854L368.859 111.888L377.897 120.181L377.999 120.567L381.299 132.661C381.299 132.661 386.131 116.233 389.544 112.807C389.777 112.562 390.059 112.369 390.372 112.24C393.774 111.105 399.754 103.125 399.754 103.125L413.212 110.005L414.187 111.105L442.539 119.047L433.467 184.847Z" fill="white"/>
<path d="M343.875 249.513L341.607 260.858C341.607 260.858 329.132 263.127 332.535 286.951L323.462 370.903L308.719 475.276L335.937 478.679L388.104 324.389L419.858 470.738H448.209L442.539 307.372C442.539 307.372 447.075 273.337 431.198 257.454C415.321 241.571 357.484 240.437 343.875 249.513Z" fill="#030303"/>
<path d="M317.792 505.907C317.792 505.907 320.06 496.831 314.39 495.697C308.719 494.562 304.183 499.1 303.049 501.369C301.915 503.638 275.831 535.404 275.831 535.404C275.831 535.404 256.552 558.093 284.904 556.959C313.255 555.824 314.39 542.21 314.39 542.21C314.39 542.21 314.39 539.942 320.06 539.942C325.73 539.942 340.473 532 339.339 526.328C338.205 520.655 328.668 501.049 328.668 501.049C328.668 501.049 322.328 517.252 317.792 505.907Z" fill="#030303"/>
<path d="M443.673 492.293C443.673 492.293 433.467 485.486 427.796 490.024C422.126 494.562 419.858 495.697 419.858 495.697L419.766 496.383C418.757 504.781 419.679 513.298 422.462 521.285C423.134 523.302 421.811 524.754 422.126 526.328C423.827 534.836 425.528 545.614 442.539 541.076C459.55 536.538 443.673 492.293 443.673 492.293Z" fill="#030303"/>
<path d="M435.735 274.472C435.735 274.472 416.456 294.892 427.796 301.699C439.137 308.506 445.941 280.144 445.941 280.144L435.735 274.472Z" fill="#FFE2AB"/>
<path d="M309.94 61.9347C309.94 61.9347 323.317 37.2387 310.607 33.5804C297.897 29.922 298.618 59.0807 298.618 59.0807L309.94 61.9347Z" fill="#FFE2AB"/>
<path d="M427.796 122.45L442.539 119.047C442.539 119.047 458.416 131.526 464.086 174.637C469.757 217.747 448.209 286.951 448.209 286.951L431.198 276.741C431.198 276.741 440.271 222.285 439.137 214.344C438.003 206.402 431.198 175.771 431.198 175.771L427.796 122.45Z" fill="white"/>
<path d="M353.525 48.4747L348.781 46.7487C348.781 46.7487 358.701 36.8246 372.504 37.6876L368.622 33.8042C368.622 33.8042 378.111 30.3523 386.737 39.4135C391.272 44.1767 396.519 49.7757 399.79 56.0829H404.871L402.75 60.3258L410.173 64.5687L402.554 63.8066C403.276 67.4697 403.028 71.2579 401.834 74.7953L400.109 79.5416C400.109 79.5416 393.207 65.7341 393.207 64.0081V68.323C393.207 68.323 388.463 64.4396 388.463 61.8507L385.875 64.8711L384.581 60.1248L368.622 64.8711L371.21 60.9878L361.289 62.2822L365.171 57.5359C365.171 57.5359 355.783 64.0242 353.525 67.8915C351.123 72.0069 347.487 78.6786 347.487 78.6786L344.899 74.3638C344.899 74.3638 341.017 54.9469 353.525 48.4747Z" fill="#030303"/>
<path d="M345.009 121.316L339.339 119.047L309.286 115.076L310.987 61.1881L297.379 48.7087C297.379 48.7087 259.954 116.778 298.513 141.737C337.071 166.695 349.546 171.233 349.546 171.233L345.009 121.316Z" fill="white"/>
</svg>
