<svg width="857" height="631" viewBox="0 0 857 631" fill="none" xmlns="http://www.w3.org/2000/svg">
<path d="M497.925 94.6166C442.986 92.712 390.656 74.9557 340.692 55.5453C290.728 36.1348 241.227 14.6224 187.607 4.33286C153.115 -2.284 113.67 -3.20217 85.8821 15.2826C59.133 33.0844 50.4948 63.8467 45.8533 92.3402C42.3571 113.799 40.3018 136.351 49.8729 156.468C56.5241 170.407 68.3325 182.131 76.5006 195.486C104.903 241.971 84.843 299.284 54.0365 344.661C39.6268 365.954 22.8433 386.259 11.7023 408.925C0.56126 431.591 -4.59591 457.55 5.14962 480.664C14.8193 503.58 37.8446 520.79 62.7886 532.893C113.458 557.478 173.167 564.52 231.39 568.504C360.281 577.291 489.855 573.497 619.08 569.703C666.905 568.284 714.935 566.85 761.987 559.451C788.106 555.346 815.075 548.828 834.035 533.083C858.115 513.095 864.084 479.252 847.945 454.166C820.885 412.135 746.053 401.694 727.138 356.582C716.725 331.754 727.419 304.095 742.549 281.065C775.009 231.659 829.417 188.323 832.284 131.852C834.255 93.0686 808.098 54.2249 767.66 35.8768C725.265 16.6408 666.488 19.0615 635.211 50.9013C603.025 83.6897 546.432 96.3012 497.925 94.6166Z" fill="#4AFF9B"/>
<path d="M503.719 573.581L355.829 571.683L356.262 567.889L363.414 505.287H493.291L502.847 567.889L503.575 572.632L503.719 573.581Z" fill="#D0D2D5"/>
<path opacity="0.1" d="M503.575 572.632H429.774L355.829 571.683L356.262 567.889H502.847L503.575 572.632Z" fill="#0C394E"/>
<path d="M527.419 568.838H331.181V573.581H527.419V568.838Z" fill="#D0D2D5"/>
<path d="M714.647 129.279C714.655 127.658 714.344 126.051 713.731 124.55C713.118 123.049 712.216 121.684 711.076 120.532C709.936 119.38 708.58 118.463 707.086 117.836C705.592 117.208 703.989 116.881 702.368 116.873H154.336C152.715 116.88 151.111 117.206 149.616 117.833C148.121 118.461 146.764 119.377 145.623 120.529C144.482 121.681 143.58 123.047 142.966 124.548C142.353 126.05 142.042 127.657 142.05 129.279V461.64H714.647V129.279Z" fill="#0C394E"/>
<path d="M142.05 458.339V497.267C142.05 500.527 143.344 503.653 145.648 505.959C147.952 508.264 151.077 509.559 154.336 509.559H702.368C705.626 509.557 708.749 508.261 711.051 505.956C713.354 503.651 714.647 500.525 714.647 497.267V458.339H142.05Z" fill="#D0D2D5"/>
<path opacity="0.1" d="M693.791 137.74H165.75V436.523H693.791V137.74Z" fill="white"/>
<path d="M431.192 494.785C433.131 494.786 435.045 494.347 436.79 493.501C438.535 492.654 440.064 491.423 441.264 489.898C441.628 489.433 441.96 488.944 442.258 488.434L435.235 487.28L442.819 487.341C443.55 485.755 443.949 484.036 443.991 482.29C444.033 480.544 443.716 478.807 443.061 477.188L432.876 482.5L442.273 475.595C441.39 474.08 440.205 472.762 438.792 471.724C437.379 470.686 435.768 469.949 434.059 469.56C432.35 469.171 430.579 469.137 428.856 469.461C427.133 469.785 425.495 470.46 424.044 471.444C422.592 472.427 421.359 473.699 420.419 475.18C419.479 476.66 418.854 478.318 418.581 480.051C418.308 481.783 418.394 483.554 418.834 485.252C419.273 486.949 420.057 488.539 421.136 489.921C422.335 491.44 423.864 492.667 425.606 493.509C427.347 494.352 429.258 494.788 431.192 494.785Z" fill="white"/>
<path opacity="0.1" d="M443.994 509.559L502.991 568.838L493.943 509.559H443.994Z" fill="#0C394E"/>
<path d="M525.879 191.646H183.231C182.142 191.646 181.259 192.53 181.259 193.619V397.589C181.259 398.678 182.142 399.561 183.231 399.561H525.879C526.969 399.561 527.851 398.678 527.851 397.589V193.619C527.851 192.53 526.969 191.646 525.879 191.646Z" fill="white"/>
<path d="M693.943 137.77H166.091V155.223H693.943V137.77Z" fill="white"/>
<path d="M182.943 140.806H168.958C168.631 140.806 168.366 141.071 168.366 141.398V150.837C168.366 151.164 168.631 151.429 168.958 151.429H182.943C183.27 151.429 183.534 151.164 183.534 150.837V141.398C183.534 141.071 183.27 140.806 182.943 140.806Z" fill="white"/>
<path opacity="0.3" d="M507.693 140.806H349.307C349.064 140.806 348.867 141.003 348.867 141.246V150.989C348.867 151.232 349.064 151.429 349.307 151.429H507.693C507.936 151.429 508.133 151.232 508.133 150.989V141.246C508.133 141.003 507.936 140.806 507.693 140.806Z" fill="white"/>
<path d="M503.408 147.21H503.021L502.877 147.089C503.364 146.511 503.632 145.78 503.635 145.025C503.631 144.404 503.443 143.799 503.095 143.285C502.747 142.771 502.254 142.372 501.68 142.138C501.105 141.904 500.474 141.845 499.866 141.97C499.259 142.094 498.701 142.396 498.265 142.837C497.828 143.278 497.532 143.838 497.414 144.448C497.295 145.057 497.36 145.688 497.599 146.26C497.839 146.833 498.242 147.321 498.759 147.665C499.276 148.008 499.883 148.19 500.503 148.189C501.258 148.184 501.988 147.916 502.566 147.43L502.71 147.552V147.946L505.137 150.374L505.895 149.615L503.408 147.21ZM500.496 147.21C500.061 147.212 499.637 147.084 499.275 146.844C498.913 146.603 498.631 146.261 498.464 145.86C498.298 145.459 498.254 145.017 498.338 144.591C498.422 144.165 498.631 143.774 498.938 143.466C499.245 143.159 499.636 142.95 500.062 142.866C500.488 142.782 500.929 142.826 501.33 142.993C501.731 143.159 502.073 143.442 502.314 143.803C502.554 144.165 502.681 144.59 502.68 145.025C502.682 145.312 502.627 145.597 502.518 145.863C502.409 146.129 502.248 146.371 502.045 146.574C501.841 146.778 501.6 146.939 501.334 147.048C501.068 147.157 500.783 147.212 500.496 147.21Z" fill="#0C394E"/>
<path d="M686.358 151.429C689.29 151.429 691.667 149.051 691.667 146.117C691.667 143.184 689.29 140.806 686.358 140.806C683.426 140.806 681.05 143.184 681.05 146.117C681.05 149.051 683.426 151.429 686.358 151.429Z" fill="white"/>
<path d="M600.332 174.193H554.722C553.704 174.193 552.879 175.019 552.879 176.037V205.737C552.879 206.756 553.704 207.581 554.722 207.581H600.332C601.35 207.581 602.175 206.756 602.175 205.737V176.037C602.175 175.019 601.35 174.193 600.332 174.193Z" fill="white"/>
<path d="M678.312 174.193H615.531C615.275 174.193 615.068 174.401 615.068 174.656V179.042C615.068 179.298 615.275 179.505 615.531 179.505H678.312C678.567 179.505 678.774 179.298 678.774 179.042V174.656C678.774 174.401 678.567 174.193 678.312 174.193Z" fill="white"/>
<path d="M678.312 185.576H615.531C615.275 185.576 615.068 185.783 615.068 186.039V190.425C615.068 190.68 615.275 190.887 615.531 190.887H678.312C678.567 190.887 678.774 190.68 678.774 190.425V186.039C678.774 185.783 678.567 185.576 678.312 185.576Z" fill="white"/>
<path d="M678.312 196.958H615.531C615.275 196.958 615.068 197.165 615.068 197.421V201.807C615.068 202.062 615.275 202.27 615.531 202.27H678.312C678.567 202.27 678.774 202.062 678.774 201.807V197.421C678.774 197.165 678.567 196.958 678.312 196.958Z" fill="white"/>
<path d="M600.332 226.552H554.722C553.704 226.552 552.879 227.377 552.879 228.396V258.096C552.879 259.114 553.704 259.94 554.722 259.94H600.332C601.35 259.94 602.175 259.114 602.175 258.096V228.396C602.175 227.377 601.35 226.552 600.332 226.552Z" fill="white"/>
<path d="M678.312 226.552H615.531C615.275 226.552 615.068 226.759 615.068 227.015V231.401C615.068 231.656 615.275 231.863 615.531 231.863H678.312C678.567 231.863 678.774 231.656 678.774 231.401V227.015C678.774 226.759 678.567 226.552 678.312 226.552Z" fill="white"/>
<path d="M678.312 237.934H615.531C615.275 237.934 615.068 238.141 615.068 238.397V242.783C615.068 243.038 615.275 243.246 615.531 243.246H678.312C678.567 243.246 678.774 243.038 678.774 242.783V238.397C678.774 238.141 678.567 237.934 678.312 237.934Z" fill="white"/>
<path d="M678.274 249.316H615.569C615.292 249.316 615.068 249.54 615.068 249.817V254.127C615.068 254.404 615.292 254.628 615.569 254.628H678.274C678.55 254.628 678.774 254.404 678.774 254.127V249.817C678.774 249.54 678.55 249.316 678.274 249.316Z" fill="white"/>
<path d="M600.332 278.91H554.722C553.704 278.91 552.879 279.735 552.879 280.754V310.454C552.879 311.472 553.704 312.298 554.722 312.298H600.332C601.35 312.298 602.175 311.472 602.175 310.454V280.754C602.175 279.735 601.35 278.91 600.332 278.91Z" fill="white"/>
<path d="M678.274 278.91H615.569C615.292 278.91 615.068 279.134 615.068 279.411V283.721C615.068 283.997 615.292 284.222 615.569 284.222H678.274C678.55 284.222 678.774 283.997 678.774 283.721V279.411C678.774 279.134 678.55 278.91 678.274 278.91Z" fill="white"/>
<path d="M678.274 290.292H615.569C615.292 290.292 615.068 290.516 615.068 290.793V295.103C615.068 295.38 615.292 295.604 615.569 295.604H678.274C678.55 295.604 678.774 295.38 678.774 295.103V290.793C678.774 290.516 678.55 290.292 678.274 290.292Z" fill="white"/>
<path d="M678.274 301.674H615.569C615.292 301.674 615.068 301.899 615.068 302.175V306.485C615.068 306.762 615.292 306.986 615.569 306.986H678.274C678.55 306.986 678.774 306.762 678.774 306.485V302.175C678.774 301.899 678.55 301.674 678.274 301.674Z" fill="white"/>
<path d="M600.332 331.268H554.722C553.704 331.268 552.879 332.094 552.879 333.112V362.812C552.879 363.83 553.704 364.656 554.722 364.656H600.332C601.35 364.656 602.175 363.83 602.175 362.812V333.112C602.175 332.094 601.35 331.268 600.332 331.268Z" fill="white"/>
<path d="M678.274 331.268H615.569C615.292 331.268 615.068 331.492 615.068 331.769V336.079C615.068 336.356 615.292 336.58 615.569 336.58H678.274C678.55 336.58 678.774 336.356 678.774 336.079V331.769C678.774 331.492 678.55 331.268 678.274 331.268Z" fill="white"/>
<path d="M678.274 342.65H615.569C615.292 342.65 615.068 342.875 615.068 343.151V347.461C615.068 347.738 615.292 347.962 615.569 347.962H678.274C678.55 347.962 678.774 347.738 678.774 347.461V343.151C678.774 342.875 678.55 342.65 678.274 342.65Z" fill="white"/>
<path d="M678.274 354.033H615.569C615.292 354.033 615.068 354.257 615.068 354.533V358.844C615.068 359.12 615.292 359.344 615.569 359.344H678.274C678.55 359.344 678.774 359.12 678.774 358.844V354.533C678.774 354.257 678.55 354.033 678.274 354.033Z" fill="white"/>
<path d="M600.332 383.626H554.722C553.704 383.626 552.879 384.452 552.879 385.47V415.17C552.879 416.189 553.704 417.014 554.722 417.014H600.332C601.35 417.014 602.175 416.189 602.175 415.17V385.47C602.175 384.452 601.35 383.626 600.332 383.626Z" fill="white"/>
<path d="M678.274 383.626H615.569C615.292 383.626 615.068 383.851 615.068 384.127V388.437C615.068 388.714 615.292 388.938 615.569 388.938H678.274C678.55 388.938 678.774 388.714 678.774 388.437V384.127C678.774 383.851 678.55 383.626 678.274 383.626Z" fill="white"/>
<path d="M678.274 395.009H615.569C615.292 395.009 615.068 395.233 615.068 395.509V399.82C615.068 400.096 615.292 400.32 615.569 400.32H678.274C678.55 400.32 678.774 400.096 678.774 399.82V395.509C678.774 395.233 678.55 395.009 678.274 395.009Z" fill="white"/>
<path d="M678.274 406.391H615.569C615.292 406.391 615.068 406.615 615.068 406.892V411.202C615.068 411.478 615.292 411.703 615.569 411.703H678.274C678.55 411.703 678.774 411.478 678.774 411.202V406.892C678.774 406.615 678.55 406.391 678.274 406.391Z" fill="white"/>
<path opacity="0.1" d="M309.24 246.744H231.253V250.788H309.24V246.744Z" fill="white"/>
<path opacity="0.1" d="M245.694 225.36H238.185V246.744H245.694V225.36Z" fill="white"/>
<path opacity="0.1" d="M256.668 225.36H249.159V246.744H256.668V225.36Z" fill="white"/>
<path opacity="0.1" d="M267.642 225.36H260.134V246.744H267.642V225.36Z" fill="white"/>
<path opacity="0.1" d="M278.616 225.36H271.108V246.744H278.616V225.36Z" fill="white"/>
<path opacity="0.1" d="M289.59 225.36H282.082V246.744H289.59V225.36Z" fill="white"/>
<path opacity="0.1" d="M300.572 225.36H293.064V246.744H300.572V225.36Z" fill="white"/>
<path opacity="0.1" d="M245.694 229.405H238.185V231.719H245.694V229.405Z" fill="white"/>
<path opacity="0.1" d="M256.668 229.405H249.159V231.719H256.668V229.405Z" fill="white"/>
<path opacity="0.1" d="M267.642 229.405H260.134V231.719H267.642V229.405Z" fill="white"/>
<path opacity="0.1" d="M278.616 229.405H271.108V231.719H278.616V229.405Z" fill="white"/>
<path opacity="0.1" d="M289.59 229.405H282.082V231.719H289.59V229.405Z" fill="white"/>
<path opacity="0.1" d="M300.572 229.405H293.064V231.719H300.572V229.405Z" fill="white"/>
<path opacity="0.1" d="M245.694 239.808H238.185V242.123H245.694V239.808Z" fill="white"/>
<path opacity="0.1" d="M256.668 239.808H249.159V242.123H256.668V239.808Z" fill="white"/>
<path opacity="0.1" d="M267.642 239.808H260.134V242.123H267.642V239.808Z" fill="white"/>
<path opacity="0.1" d="M278.616 239.808H271.108V242.123H278.616V239.808Z" fill="white"/>
<path opacity="0.1" d="M289.59 239.808H282.082V242.123H289.59V239.808Z" fill="white"/>
<path opacity="0.1" d="M300.572 239.808H293.064V242.123H300.572V239.808Z" fill="white"/>
<path opacity="0.1" d="M480.223 257.147H402.236V261.192H480.223V257.147Z" fill="white"/>
<path opacity="0.1" d="M416.676 235.764H409.168V257.147H416.676V235.764Z" fill="white"/>
<path opacity="0.1" d="M427.651 235.764H420.142V257.147H427.651V235.764Z" fill="white"/>
<path opacity="0.1" d="M438.625 235.764H431.117V257.147H438.625V235.764Z" fill="white"/>
<path opacity="0.1" d="M449.606 235.764H442.098V257.147H449.606V235.764Z" fill="white"/>
<path opacity="0.1" d="M460.581 235.764H453.072V257.147H460.581V235.764Z" fill="white"/>
<path opacity="0.1" d="M471.555 235.764H464.047V257.147H471.555V235.764Z" fill="white"/>
<path opacity="0.1" d="M416.676 239.808H409.168V242.123H416.676V239.808Z" fill="white"/>
<path opacity="0.1" d="M427.651 239.808H420.142V242.123H427.651V239.808Z" fill="white"/>
<path opacity="0.1" d="M438.625 239.808H431.117V242.123H438.625V239.808Z" fill="white"/>
<path opacity="0.1" d="M449.606 239.808H442.098V242.123H449.606V239.808Z" fill="white"/>
<path opacity="0.1" d="M460.581 239.808H453.072V242.123H460.581V239.808Z" fill="white"/>
<path opacity="0.1" d="M471.555 239.808H464.047V242.123H471.555V239.808Z" fill="white"/>
<path opacity="0.1" d="M416.676 250.212H409.168V252.526H416.676V250.212Z" fill="white"/>
<path opacity="0.1" d="M427.651 250.212H420.142V252.526H427.651V250.212Z" fill="white"/>
<path opacity="0.1" d="M438.625 250.212H431.117V252.526H438.625V250.212Z" fill="white"/>
<path opacity="0.1" d="M449.606 250.212H442.098V252.526H449.606V250.212Z" fill="white"/>
<path opacity="0.1" d="M460.581 250.212H453.072V252.526H460.581V250.212Z" fill="white"/>
<path opacity="0.1" d="M471.555 250.212H464.047V252.526H471.555V250.212Z" fill="white"/>
<path opacity="0.1" d="M480.223 286.62H402.236V290.664H480.223V286.62Z" fill="white"/>
<path opacity="0.1" d="M416.676 265.236H409.168V286.619H416.676V265.236Z" fill="white"/>
<path opacity="0.1" d="M427.651 265.236H420.142V286.619H427.651V265.236Z" fill="white"/>
<path opacity="0.1" d="M438.625 265.236H431.117V286.619H438.625V265.236Z" fill="white"/>
<path opacity="0.1" d="M449.606 265.236H442.098V286.619H449.606V265.236Z" fill="white"/>
<path opacity="0.1" d="M460.581 265.236H453.072V286.619H460.581V265.236Z" fill="white"/>
<path opacity="0.1" d="M471.555 265.236H464.047V286.619H471.555V265.236Z" fill="white"/>
<path opacity="0.1" d="M416.676 269.281H409.168V271.595H416.676V269.281Z" fill="white"/>
<path opacity="0.1" d="M427.651 269.281H420.142V271.595H427.651V269.281Z" fill="white"/>
<path opacity="0.1" d="M438.625 269.281H431.117V271.595H438.625V269.281Z" fill="white"/>
<path opacity="0.1" d="M449.606 269.281H442.098V271.595H449.606V269.281Z" fill="white"/>
<path opacity="0.1" d="M460.581 269.281H453.072V271.595H460.581V269.281Z" fill="white"/>
<path opacity="0.1" d="M471.555 269.281H464.047V271.595H471.555V269.281Z" fill="white"/>
<path opacity="0.1" d="M416.676 279.684H409.168V281.998H416.676V279.684Z" fill="white"/>
<path opacity="0.1" d="M427.651 279.684H420.142V281.998H427.651V279.684Z" fill="white"/>
<path opacity="0.1" d="M438.625 279.684H431.117V281.998H438.625V279.684Z" fill="white"/>
<path opacity="0.1" d="M449.606 279.684H442.098V281.998H449.606V279.684Z" fill="white"/>
<path opacity="0.1" d="M460.581 279.684H453.072V281.998H460.581V279.684Z" fill="white"/>
<path opacity="0.1" d="M471.555 279.684H464.047V281.998H471.555V279.684Z" fill="white"/>
<path opacity="0.1" d="M279.094 292.478C278.512 291.732 277.98 290.948 277.501 290.133L288.733 288.289L276.599 288.38C275.435 285.844 274.799 283.098 274.732 280.309C274.664 277.52 275.165 274.746 276.204 272.156L292.472 280.594L277.448 269.546C278.846 267.093 280.735 264.955 282.998 263.266C285.261 261.578 287.848 260.376 290.598 259.736C293.347 259.096 296.199 259.032 298.974 259.547C301.749 260.062 304.388 261.146 306.725 262.73C309.062 264.314 311.046 266.365 312.553 268.753C314.06 271.141 315.057 273.815 315.482 276.607C315.907 279.399 315.75 282.248 315.022 284.977C314.294 287.706 313.01 290.254 311.25 292.462C312.165 293.617 312.948 294.869 313.586 296.196L299.01 303.784L314.549 298.571C315.636 301.794 315.904 305.238 315.328 308.591C314.752 311.944 313.351 315.101 311.25 317.776C313.631 320.797 315.114 324.428 315.529 328.252C315.944 332.077 315.275 335.941 313.597 339.403C311.919 342.865 309.302 345.784 306.043 347.826C302.785 349.869 299.017 350.952 295.172 350.952C291.327 350.952 287.56 349.869 284.301 347.826C281.043 345.784 278.425 342.865 276.747 339.403C275.069 335.941 274.4 332.077 274.815 328.252C275.23 324.428 276.713 320.797 279.094 317.776C276.258 314.166 274.716 309.707 274.716 305.116C274.716 300.524 276.258 296.065 279.094 292.455V292.478Z" fill="white"/>
<path opacity="0.1" d="M315.634 305.135C315.634 309.722 314.09 314.175 311.25 317.776C313.631 320.797 315.114 324.428 315.529 328.252C315.944 332.077 315.275 335.941 313.597 339.403C311.919 342.865 309.302 345.784 306.043 347.826C302.785 349.869 299.017 350.952 295.172 350.952C291.327 350.952 287.56 349.869 284.301 347.826C281.043 345.784 278.425 342.865 276.747 339.403C275.069 335.941 274.4 332.077 274.815 328.252C275.23 324.428 276.713 320.797 279.094 317.776C276.341 314.309 315.634 302.835 315.634 305.135Z" fill="white"/>
<path opacity="0.2" d="M298.448 356.385C298.484 356.439 298.517 356.495 298.547 356.552H291.6C291.638 356.499 291.661 356.438 291.698 356.385C291.101 355.344 290.792 354.163 290.804 352.963C290.8 352.14 290.942 351.323 291.221 350.55C291.607 350.61 292.085 350.679 292.639 350.739C294.25 350.901 295.874 350.901 297.485 350.739C297.95 350.694 298.428 350.633 298.919 350.557C298.915 350.57 298.915 350.583 298.919 350.595C299.195 351.356 299.333 352.161 299.328 352.97C299.343 354.167 299.04 355.345 298.448 356.385Z" fill="#3F3D56"/>
<path opacity="0.1" d="M273.482 356.552H234.803C234.719 356.332 234.644 356.097 234.575 355.869C233.213 351.484 233.37 346.767 235.023 342.483C231.247 339.871 228.458 336.066 227.103 331.677C225.748 327.289 225.907 322.572 227.552 318.285C226.775 317.749 226.038 317.159 225.346 316.517L235.523 311.44L223.95 315.113C222.089 313.036 220.672 310.6 219.785 307.955C218.898 305.31 218.561 302.512 218.793 299.732L236.851 302.995L219.24 296.871C219.848 294.11 221.02 291.504 222.683 289.219C224.346 286.933 226.464 285.016 228.903 283.589C231.342 282.162 234.051 281.256 236.857 280.927C239.664 280.598 242.508 280.854 245.211 281.678C247.914 282.503 250.417 283.878 252.562 285.718C254.708 287.558 256.45 289.822 257.679 292.368C258.907 294.914 259.596 297.687 259.701 300.512C259.807 303.337 259.326 306.154 258.291 308.784C259.512 309.635 260.639 310.614 261.65 311.706L249.956 323.247L263.266 313.671C265.261 316.433 266.535 319.648 266.975 323.027C267.415 326.406 267.005 329.841 265.784 333.021C269.457 335.566 272.197 339.243 273.587 343.491C274.977 347.74 274.94 352.326 273.482 356.552Z" fill="white"/>
<path opacity="0.1" d="M273.482 356.552H234.803C234.719 356.332 234.644 356.097 234.575 355.869C233.213 351.484 233.37 346.767 235.023 342.483C231.382 339.964 265.533 317.389 266.208 319.59C267.571 323.977 267.413 328.697 265.761 332.983C269.446 335.527 272.196 339.209 273.591 343.466C274.985 347.722 274.947 352.319 273.482 356.552Z" fill="white"/>
<path opacity="0.1" d="M448.484 328.825C446.135 332.769 442.525 335.806 438.238 337.445C438.421 338.905 438.449 340.38 438.321 341.846L421.932 340.86L437.942 344.335C437.471 346.518 436.646 348.61 435.5 350.527C434.105 352.875 432.247 354.914 430.04 356.521H407.727V357.106H384.975C385.02 356.908 385.066 356.719 385.119 356.521C385.949 353.382 387.513 350.485 389.683 348.069C391.852 345.654 394.564 343.788 397.595 342.628C397.013 338.072 397.977 333.454 400.333 329.513C402.689 325.572 406.3 322.537 410.586 320.895C410.466 319.957 410.411 319.011 410.42 318.065L420.999 322.246L410.533 316.092C410.842 313.318 411.713 310.637 413.094 308.213C414.476 305.789 416.337 303.672 418.565 301.993L428.204 317.609L420.977 300.415C424.914 298.235 429.459 297.414 433.909 298.077C438.359 298.741 442.467 300.852 445.598 304.086C448.729 307.319 450.708 311.495 451.23 315.966C451.751 320.438 450.786 324.957 448.484 328.825Z" fill="white"/>
<path opacity="0.1" d="M435.5 350.557C434.105 352.905 432.247 354.944 430.04 356.552H407.727V357.136H384.975C385.02 356.939 385.066 356.749 385.119 356.552C385.949 353.413 387.513 350.516 389.683 348.1C391.852 345.684 394.564 343.819 397.595 342.658C397.405 341.14 401.812 341.368 407.689 342.355C419.209 344.289 436.281 349.252 435.5 350.557Z" fill="white"/>
<path d="M338.788 295.915C338.788 295.915 341.594 311.091 335.33 316.046C329.065 321.001 340.639 350.701 359.735 347.234C378.832 343.766 386.613 318.854 386.613 318.854C386.613 318.854 367.486 314.893 374.577 294.762L338.788 295.915Z" fill="#FFE2AB"/>
<path d="M355.693 307.054C373.18 307.054 387.356 292.871 387.356 275.374C387.356 257.877 373.18 243.693 355.693 243.693C338.206 243.693 324.029 257.877 324.029 275.374C324.029 292.871 338.206 307.054 355.693 307.054Z" fill="#FFE2AB"/>
<path d="M407.727 335.601V357.136H303.173V336.58C303.173 333.973 303.941 331.424 305.38 329.252C306.819 327.079 308.866 325.378 311.265 324.363L314.261 323.088C321.845 319.856 331.06 315.841 334.071 314.172C334.4 314.007 334.711 313.806 334.996 313.573C336.642 311.926 336.316 314.066 336.316 314.066C336.316 314.066 336.27 314.476 336.24 315.181C336.058 320.03 336.755 339.084 359.075 337.498C380.849 335.98 381.828 321.244 381.608 316.911C381.595 316.51 381.562 316.11 381.509 315.712C383.015 316.071 384.489 316.553 385.915 317.154C390.466 318.839 397.185 321.54 398.983 322.815C399.544 323.21 400.227 323.619 400.97 324.037C401.813 324.507 402.601 325.069 403.321 325.714C404.708 326.96 405.817 328.484 406.576 330.188C407.335 331.891 407.727 333.736 407.727 335.601Z" fill="white"/>
<path opacity="0.1" d="M385.915 317.154C384.072 325.698 378.286 341.702 357.43 342.119C335.208 342.559 333.919 320.447 334.063 314.172C334.398 314.012 334.711 313.81 334.996 313.573C336.649 311.926 336.316 314.066 336.316 314.066C336.316 314.066 333.517 339.312 359.068 337.498C384.619 335.684 381.479 315.72 381.479 315.72C381.479 315.599 383.382 316.259 385.915 317.154Z" fill="#0C394E"/>
<path d="M318.212 276.96C319.264 276.697 320.37 276.755 321.388 277.127C322.406 277.499 323.289 278.168 323.923 279.047C325.076 280.663 325.25 282.613 325.395 284.48C326.767 284.768 327.541 283.212 327.67 282.036C328.178 277.248 328.216 272.369 329.824 267.74C331.431 263.111 334.943 258.634 340.335 256.866C342.178 256.228 344.146 256.04 346.076 256.32C347.221 256.51 348.298 256.912 349.436 257.079C353.38 257.731 357.665 255.865 361.358 257.162C363.679 257.982 365.15 259.871 366.235 261.761C366.706 262.78 367.348 263.711 368.131 264.515C369.701 265.927 372.158 266.291 374.41 266.731C376.663 267.171 379.12 267.937 380.083 269.675C380.948 271.246 380.311 273.059 380.023 274.759C379.577 277.452 380.027 280.216 381.304 282.628C381.721 283.387 382.571 284.305 383.58 284.055C384.031 283.902 384.413 283.592 384.656 283.182C387.243 279.555 387.174 274.835 390.42 271.565C391.505 270.472 392.908 269.622 393.962 268.529C394.76 267.72 395.345 266.725 395.665 265.634C395.986 264.543 396.031 263.39 395.797 262.277C395.213 259.773 393.211 257.724 391.596 255.523C389.498 252.735 387.97 249.561 387.099 246.182C386.946 245.789 386.946 245.354 387.099 244.961C387.405 244.562 387.8 244.24 388.251 244.02C389.13 243.43 389.765 242.54 390.036 241.516C390.306 240.493 390.195 239.405 389.723 238.458C388.805 236.583 386.788 235.157 384.512 234.307C382.205 233.548 379.822 233.039 377.406 232.789C375.813 233.017 373.948 232.114 373.455 230.839C373.235 230.27 373.235 229.655 373.015 229.086C372.717 228.515 372.285 228.023 371.757 227.654C371.229 227.284 370.62 227.046 369.981 226.962C368.625 226.742 367.236 226.841 365.924 227.25C364.407 227.675 362.685 228.312 361.373 227.569C360.683 227.182 360.304 226.476 359.561 226.157C358.044 225.52 356.482 226.81 355.397 227.872C354.352 228.987 353.069 229.851 351.643 230.399C350.89 230.686 350.084 230.807 349.281 230.753C348.477 230.699 347.694 230.472 346.986 230.088C345.947 229.428 345.424 228.365 344.597 227.523C343.036 226.13 341.038 225.325 338.947 225.247C336.797 225.132 334.643 225.368 332.569 225.945C328.61 226.91 324.829 228.498 321.367 230.649C319.626 231.607 318.149 232.981 317.067 234.648C316.427 235.927 316.097 237.339 316.104 238.769C315.937 243.253 317.424 247.973 321.299 251.115C318.933 252.101 318.137 254.522 317.583 256.669C316.696 260.099 315.808 263.582 316.142 267.072C316.309 268.878 316.802 270.684 316.536 272.483C316.324 273.33 316.207 274.197 316.187 275.07C316.299 275.551 316.551 275.988 316.912 276.324C317.273 276.661 317.725 276.882 318.212 276.96Z" fill="#454B69"/>
<g opacity="0.1">
<path opacity="0.1" d="M395.305 260.865C394.964 261.609 394.503 262.291 393.939 262.884C392.885 263.992 391.482 264.849 390.398 265.919C387.152 269.167 387.22 273.917 384.634 277.544C384.392 277.954 384.009 278.262 383.557 278.409C382.571 278.667 381.721 277.772 381.282 276.983C380.78 276.022 380.401 275.002 380.152 273.947C380.098 274.213 380.045 274.478 380 274.706C379.554 277.399 380.004 280.163 381.282 282.575C381.699 283.334 382.548 284.252 383.557 284.002C384.008 283.849 384.391 283.539 384.634 283.129C387.22 279.502 387.152 274.782 390.398 271.511C391.482 270.419 392.885 269.569 393.939 268.476C394.737 267.666 395.322 266.672 395.643 265.581C395.963 264.49 396.008 263.336 395.775 262.224C395.658 261.758 395.501 261.303 395.305 260.865Z" fill="#0C394E"/>
<path opacity="0.1" d="M388.236 238.404C387.783 238.622 387.388 238.945 387.083 239.345C386.932 239.736 386.932 240.169 387.083 240.559C387.383 241.739 387.765 242.895 388.229 244.02C389.108 243.43 389.742 242.54 390.013 241.516C390.284 240.493 390.172 239.405 389.7 238.458C389.552 238.145 389.374 237.848 389.169 237.57C388.9 237.891 388.586 238.172 388.236 238.404Z" fill="#0C394E"/>
<path opacity="0.1" d="M321.346 245.439C318.659 243.223 316.888 240.09 316.378 236.644C316.242 237.324 316.166 238.015 316.15 238.708C315.976 242.021 316.849 245.305 318.646 248.094C319.189 246.907 320.15 245.962 321.346 245.439Z" fill="#0C394E"/>
<path opacity="0.1" d="M380.023 269.167C380.311 267.459 380.948 265.646 380.083 264.083C379.12 262.337 376.663 261.579 374.41 261.138C372.158 260.698 369.701 260.327 368.131 258.923C367.348 258.119 366.706 257.187 366.235 256.168C365.165 254.279 363.679 252.374 361.358 251.57C357.665 250.272 353.38 252.131 349.436 251.486C348.298 251.297 347.221 250.902 346.076 250.728C344.146 250.445 342.177 250.633 340.335 251.274C334.943 253.05 331.431 257.527 329.824 262.148C328.216 266.769 328.178 271.648 327.67 276.444C327.541 277.612 326.767 279.176 325.395 278.887C325.25 277.013 325.076 275.093 323.923 273.446C323.288 272.569 322.404 271.902 321.386 271.531C320.368 271.161 319.263 271.104 318.212 271.367C317.575 271.225 317.009 270.862 316.612 270.343C316.696 271.039 316.696 271.742 316.612 272.437C316.399 273.284 316.282 274.152 316.263 275.025C316.361 275.51 316.602 275.956 316.955 276.303C317.307 276.651 317.756 276.885 318.243 276.975C319.294 276.712 320.4 276.77 321.418 277.142C322.436 277.514 323.319 278.183 323.954 279.062C325.106 280.678 325.281 282.628 325.425 284.495C326.798 284.783 327.571 283.228 327.7 282.051C328.208 277.263 328.246 272.384 329.854 267.755C331.462 263.127 334.973 258.65 340.365 256.882C342.208 256.243 344.177 256.055 346.107 256.335C347.252 256.525 348.329 256.927 349.466 257.094C353.41 257.747 357.695 255.88 361.389 257.177C363.709 257.997 365.181 259.886 366.265 261.776C366.737 262.795 367.378 263.726 368.161 264.53C369.731 265.942 372.188 266.306 374.441 266.746C376.693 267.186 378.991 267.9 380 269.508C379.962 269.394 380 269.281 380.023 269.167Z" fill="#0C394E"/>
<path opacity="0.1" d="M316.582 266.807C316.707 265.393 316.622 263.969 316.332 262.58C316.109 264.047 316.061 265.534 316.187 267.012C316.187 267.391 316.271 267.77 316.324 268.142C316.407 267.695 316.521 267.254 316.582 266.807Z" fill="#0C394E"/>
</g>
<path d="M279.465 387.754V374.058C279.465 373.955 279.506 373.857 279.579 373.784C279.651 373.712 279.75 373.671 279.852 373.671H281.407C281.51 373.671 281.608 373.712 281.68 373.784C281.753 373.857 281.794 373.955 281.794 374.058V379.756L288.104 373.906C288.252 373.782 288.432 373.703 288.624 373.676C288.815 373.65 289.01 373.678 289.186 373.757C289.362 373.836 289.513 373.963 289.621 374.124C289.728 374.284 289.789 374.472 289.795 374.665V387.071C289.789 387.265 289.728 387.452 289.621 387.613C289.513 387.773 289.362 387.9 289.186 387.979C289.01 388.058 288.815 388.086 288.624 388.06C288.432 388.033 288.252 387.954 288.104 387.83L281.794 382.018V387.686C281.794 387.789 281.753 387.887 281.68 387.96C281.608 388.032 281.51 388.073 281.407 388.073H279.852C279.76 388.074 279.671 388.043 279.6 387.985C279.529 387.926 279.482 387.845 279.465 387.754Z" fill="#0C394E"/>
<path d="M431.928 374.058V387.754C431.928 387.806 431.918 387.857 431.898 387.904C431.878 387.952 431.849 387.995 431.812 388.031C431.775 388.067 431.732 388.095 431.684 388.114C431.636 388.133 431.585 388.142 431.534 388.141H430.017C429.914 388.141 429.816 388.101 429.743 388.028C429.671 387.955 429.63 387.857 429.63 387.754V382.056L423.32 387.899C423.171 388.022 422.99 388.1 422.799 388.126C422.607 388.152 422.412 388.124 422.236 388.046C422.059 387.967 421.908 387.84 421.8 387.68C421.691 387.52 421.629 387.333 421.621 387.14V374.688C421.629 374.494 421.691 374.307 421.8 374.147C421.908 373.987 422.059 373.861 422.236 373.782C422.412 373.703 422.607 373.675 422.799 373.701C422.99 373.727 423.171 373.806 423.32 373.929L429.63 379.741V374.081C429.63 373.978 429.671 373.879 429.743 373.807C429.816 373.734 429.914 373.694 430.017 373.694H431.534C431.634 373.691 431.731 373.728 431.804 373.796C431.878 373.864 431.922 373.958 431.928 374.058Z" fill="#0C394E"/>
<path d="M353.122 388.346H350.035C349.633 388.346 349.247 388.186 348.963 387.902C348.678 387.617 348.518 387.231 348.518 386.829V375.492C348.518 375.089 348.678 374.703 348.963 374.419C349.247 374.134 349.633 373.974 350.035 373.974H353.122C353.524 373.974 353.91 374.134 354.194 374.419C354.479 374.703 354.639 375.089 354.639 375.492V386.829C354.639 387.231 354.479 387.617 354.194 387.902C353.91 388.186 353.524 388.346 353.122 388.346ZM362.905 386.829V375.492C362.905 375.089 362.746 374.703 362.461 374.419C362.177 374.134 361.791 373.974 361.389 373.974H358.271C357.869 373.974 357.483 374.134 357.199 374.419C356.914 374.703 356.755 375.089 356.755 375.492V386.829C356.755 387.231 356.914 387.617 357.199 387.902C357.483 388.186 357.869 388.346 358.271 388.346H361.358C361.56 388.35 361.76 388.314 361.948 388.24C362.136 388.165 362.306 388.054 362.45 387.913C362.595 387.771 362.709 387.603 362.787 387.416C362.865 387.23 362.905 387.03 362.905 386.829Z" fill="#0C394E"/>
<path opacity="0.6" d="M446.702 355.596H264.684V357.622H446.702V355.596Z" fill="#0C394E"/>
<path d="M320.89 361.408C323.541 361.408 325.69 359.258 325.69 356.605C325.69 353.952 323.541 351.802 320.89 351.802C318.238 351.802 316.089 353.952 316.089 356.605C316.089 359.258 318.238 361.408 320.89 361.408Z" fill="#0C394E"/>
<path d="M320.89 355.596H264.684V357.622H320.89V355.596Z" fill="#0C394E"/>
<path d="M725.856 584.272C750.766 584.272 770.959 580.386 770.959 575.591C770.959 570.797 750.766 566.91 725.856 566.91C700.947 566.91 680.754 570.797 680.754 575.591C680.754 580.386 700.947 584.272 725.856 584.272Z" fill="white"/>
<path opacity="0.1" d="M219.938 631C261.405 631 295.02 623.866 295.02 615.065C295.02 606.264 261.405 599.13 219.938 599.13C178.471 599.13 144.856 606.264 144.856 615.065C144.856 623.866 178.471 631 219.938 631Z" fill="white"/>
<path d="M245.079 613.213C243.562 612.66 241.939 612.751 240.354 612.576C237.063 612.195 233.999 610.708 231.663 608.357C230.161 606.837 228.98 605.031 228.189 603.045C228.69 603.227 229.191 603.417 229.706 603.622C228.189 600.078 229.782 596.102 231.178 592.521C233.544 586.45 235.781 580.347 237.89 574.21C243.198 558.662 247.749 542.492 247.65 525.95C247.65 519.97 246.551 514.317 246.338 508.345C246.179 503.914 246.861 499.49 246.831 495.051C246.831 494.429 246.831 493.814 246.786 493.192C248.142 492.003 249.208 490.519 249.901 488.854C250.594 487.188 250.896 485.386 250.782 483.585C250.705 482.647 250.571 481.714 250.38 480.793C250.112 479.191 249.757 477.606 249.319 476.042C248.818 474.396 248.136 472.818 247.552 471.209C246.422 468.09 245.656 464.842 244.692 461.671C245.049 461.707 245.398 461.802 245.724 461.951C245.481 461.666 245.314 461.324 245.238 460.957C244.672 458.938 244.366 456.855 244.328 454.758L244.973 454.469C245.263 452.422 245.158 450.338 244.662 448.331C245.026 445.075 245.595 441.797 245.944 438.557C246.073 437.343 246.02 435.818 244.905 435.522C244.677 433.784 244.586 432.024 244.495 430.271C244.177 424.155 243.861 418.041 243.547 411.93C243.229 405.791 242.91 399.66 242.789 393.514C242.705 389.613 242.66 385.577 241.735 381.843C241.895 380.054 241.712 378.252 241.196 376.531C239.786 372.062 235.402 368.518 230.958 368.769C229.632 366.871 227.993 365.214 226.111 363.867C226.999 361.879 228.061 359.83 228.933 358.221C236.047 355.907 241.249 348.888 241.249 340.541C241.26 337.486 240.545 334.471 239.164 331.746C239.294 331.411 239.406 331.069 239.497 330.722C239.878 329.083 239.759 327.368 239.156 325.797C238.943 325.194 238.689 324.606 238.398 324.037C238.2 323.657 237.988 323.278 237.768 322.914L237.381 322.329C237.146 321.973 236.904 321.631 236.623 321.297C236.084 320.574 235.507 319.88 234.894 319.218C234.139 318.4 233.305 317.658 232.406 317.002C231.187 316.096 229.792 315.452 228.311 315.113C227.454 314.944 226.582 314.865 225.709 314.878C225.186 314.878 224.655 314.878 224.132 314.923C223.07 314.984 222.016 315.06 220.962 315.052C220.613 315.052 220.257 315.052 219.908 314.999C218.052 314.752 216.217 314.369 214.417 313.853L213.507 313.664C213.196 313.603 212.892 313.55 212.581 313.512C211.749 313.401 210.91 313.35 210.071 313.36H209.229C208.388 313.401 207.55 313.487 206.719 313.618L205.885 313.747C203.778 314.077 201.725 314.687 199.78 315.561C199.529 315.675 199.271 315.804 199.021 315.94L198.869 316.024C198.665 316.13 198.46 316.244 198.263 316.365L198.149 316.433L197.504 316.843L197.451 316.881C191.43 320.933 187.873 328.612 186.97 336.231C185.961 344.783 187.728 353.403 189.496 361.818L191.088 369.406C191.156 369.748 191.232 370.082 191.301 370.423C189.061 372.262 187.339 374.652 186.303 377.359C184.786 381.153 184.748 385.258 184.869 389.371C184.869 390.205 184.915 391.04 184.998 391.875C184.809 393.453 184.642 395.039 184.536 396.632C184.058 403.993 184.953 411.391 184.718 418.767C184.536 424.451 183.679 430.149 184.096 435.795C184.46 440.803 185.802 445.66 187.129 450.493L189.041 457.383C189.102 457.74 189.269 458.07 189.518 458.332C189.832 458.543 190.216 458.622 190.588 458.552C189.344 461.377 188.305 464.289 187.478 467.263C186.907 469.085 186.53 470.962 186.356 472.863C186.105 476.338 186.909 479.791 187.713 483.168C188.927 488.227 190.135 493.306 191.338 498.405C192.188 501.971 193.035 505.535 193.879 509.096C195.548 516.123 197.224 523.195 197.535 530.427C197.708 534.058 197.453 537.698 196.776 541.27C194.588 551.968 194.27 562.964 195.836 573.77C197.102 582.887 199.154 591.877 201.971 600.64C202.586 600.314 203.208 600.01 203.845 599.729L203.579 600.223C202.704 601.74 201.896 603.296 201.152 604.889C200.651 605.925 200.218 606.992 199.855 608.084C198.885 611.119 198.733 614.352 198.596 617.546C198.527 618.16 198.581 618.782 198.756 619.375C199.173 620.521 200.371 621.105 201.486 621.424C204.762 622.357 208.168 622.023 211.573 621.583C211.589 621.658 211.611 621.732 211.641 621.803C212.058 622.949 213.249 623.533 214.371 623.852C219.058 625.188 224.003 623.928 228.834 623.473C233.665 623.017 238.413 623.351 243.062 622.236C243.755 622.088 244.42 621.831 245.034 621.477C246.229 620.64 247.106 619.423 247.521 618.024C247.667 617.662 247.764 617.282 247.809 616.894C247.999 615.232 246.581 613.767 245.079 613.213ZM229.039 542.94C228.777 544.717 228.267 546.449 227.522 548.084C223.874 555.846 221.258 564.053 219.741 572.495C218.745 578.072 218.17 583.716 218.019 589.379C217.943 593.553 218.103 597.923 216.366 601.672L216.995 601.573C216.798 601.937 216.609 602.332 216.427 602.62L216.336 602.787C215.285 600.998 214.583 599.026 214.265 596.975C214.265 596.906 213.924 596.853 213.401 596.823C211.257 584.837 210.513 572.642 211.186 560.483C211.196 559.009 211.4 557.542 211.793 556.12C212.18 554.898 212.832 553.783 213.31 552.599C214.067 550.611 214.577 548.536 214.826 546.423C215.652 541.021 215.972 535.554 215.782 530.093C215.6 524.94 216.791 519.818 217.807 514.689C218.292 512.253 218.74 509.81 218.982 507.366L219.028 506.873C223.54 514.321 226.694 522.512 228.341 531.064C229.257 534.953 229.493 538.97 229.039 542.94ZM196.579 433.276L196.822 433.488C197.555 434.133 198.23 434.842 198.839 435.605C199.142 435.938 199.361 436.339 199.476 436.774C199.704 437.882 198.786 438.823 198.035 439.635C197.709 439.986 197.403 440.356 197.118 440.742C196.956 438.254 196.784 435.765 196.602 433.276H196.579Z" fill="url(#paint0_linear)"/>
<path d="M186.083 385.713L185.249 392.155C184.968 394.341 184.687 396.519 184.536 398.712C184.027 406.011 184.968 413.342 184.725 420.657C184.528 426.287 183.633 431.91 184.065 437.533C184.452 442.495 185.863 447.321 187.273 452.102L189.276 458.931C189.344 459.288 189.519 459.616 189.776 459.872C190.162 460.101 190.62 460.174 191.058 460.077L199.946 459.273C199.378 456.662 198.748 453.961 198.43 451.282C198.187 449.188 198.043 447.078 197.891 444.969C197.421 438.398 196.882 431.826 196.374 425.24L195.426 413.706C195.024 408.698 194.607 403.667 193.348 398.803C192.085 393.89 189.583 389.383 186.083 385.713Z" fill="white"/>
<path opacity="0.1" d="M186.083 385.713L185.249 392.155C184.968 394.341 184.687 396.519 184.536 398.712C184.027 406.011 184.968 413.342 184.725 420.657C184.528 426.287 183.633 431.91 184.065 437.533C184.452 442.495 185.863 447.321 187.273 452.102L189.276 458.931C189.344 459.288 189.519 459.616 189.776 459.872C190.162 460.101 190.62 460.174 191.058 460.077L199.946 459.273C199.378 456.662 198.748 453.961 198.43 451.282C198.187 449.188 198.043 447.078 197.891 444.969C197.421 438.398 196.882 431.826 196.374 425.24L195.426 413.706C195.024 408.698 194.607 403.667 193.348 398.803C192.085 393.89 189.583 389.383 186.083 385.713Z" fill="#0C394E"/>
<path d="M201.918 605.026C201.396 606.053 200.941 607.112 200.553 608.198C199.537 611.195 199.385 614.412 199.234 617.577C199.166 618.186 199.223 618.803 199.4 619.39C199.84 620.528 201.099 621.105 202.275 621.416C207.197 622.744 212.384 621.5 217.443 621.044C222.501 620.589 227.499 620.923 232.383 619.823C233.105 619.683 233.802 619.441 234.454 619.102C235.691 618.296 236.614 617.091 237.07 615.687C237.218 615.327 237.317 614.95 237.366 614.564C237.525 612.895 236.077 611.453 234.499 610.907C232.922 610.36 231.2 610.444 229.539 610.277C226.119 609.927 222.909 608.457 220.408 606.096C217.907 603.735 216.254 600.614 215.706 597.218C215.645 596.853 207.485 597.073 206.605 597.544C205.604 598.098 204.997 599.471 204.429 600.405C203.534 601.907 202.697 603.447 201.918 605.026Z" fill="#1B5C79"/>
<path opacity="0.1" d="M201.918 605.026C201.396 606.053 200.941 607.112 200.553 608.198C199.537 611.195 199.385 614.412 199.234 617.577C199.166 618.186 199.223 618.803 199.4 619.39C199.84 620.528 201.099 621.105 202.275 621.416C207.197 622.744 212.384 621.5 217.443 621.044C222.501 620.589 227.499 620.923 232.383 619.823C233.105 619.683 233.802 619.441 234.454 619.102C235.691 618.296 236.614 617.091 237.07 615.687C237.218 615.327 237.317 614.95 237.366 614.564C237.525 612.895 236.077 611.453 234.499 610.907C232.922 610.36 231.2 610.444 229.539 610.277C226.119 609.927 222.909 608.457 220.408 606.096C217.907 603.735 216.254 600.614 215.706 597.218C215.645 596.853 207.485 597.073 206.605 597.544C205.604 598.098 204.997 599.471 204.429 600.405C203.534 601.907 202.697 603.447 201.918 605.026Z" fill="#0C394E"/>
<path d="M215.456 607.439C214.931 608.462 214.475 609.519 214.091 610.603C213.067 613.638 212.915 616.818 212.771 619.982C212.7 620.592 212.757 621.209 212.938 621.796C213.37 622.934 214.629 623.511 215.805 623.829C220.727 625.15 225.922 623.905 230.973 623.45C236.024 622.995 241.037 623.328 245.913 622.228C246.638 622.082 247.336 621.826 247.984 621.469C249.222 620.666 250.146 619.46 250.6 618.055C250.748 617.695 250.847 617.317 250.896 616.932C251.055 615.27 249.607 613.82 248.029 613.274C246.452 612.728 244.73 612.819 243.069 612.644C239.65 612.293 236.442 610.824 233.941 608.465C231.441 606.106 229.787 602.987 229.236 599.593C229.175 599.228 221.015 599.441 220.135 599.911C219.127 600.465 218.52 601.839 217.951 602.772C217.086 604.313 216.237 605.86 215.456 607.439Z" fill="#1B5C79"/>
<path d="M250.745 526.83C250.851 543.228 246.088 559.254 240.498 574.635C238.284 580.736 235.935 586.784 233.453 592.779C231.982 596.33 230.321 600.276 231.898 603.781C227.348 602.051 222.721 601.034 217.936 601.831C219.756 598.113 219.582 593.788 219.665 589.69C219.819 584.074 220.418 578.48 221.455 572.958C223.061 564.555 225.815 556.413 229.638 548.76C230.411 547.146 230.945 545.428 231.223 543.66C231.845 539.76 231.36 535.754 230.548 531.891C228.802 523.36 225.485 515.229 220.765 507.913L220.719 508.398C220.436 510.839 220.026 513.263 219.491 515.66C218.421 520.737 217.17 525.821 217.359 530.928C217.557 536.343 217.222 541.764 216.358 547.113C216.08 549.213 215.532 551.269 214.728 553.229C214.204 554.405 213.522 555.506 213.112 556.727C212.702 558.133 212.488 559.588 212.475 561.052C211.869 573.398 212.475 585.934 214.993 598.037C210.769 597.703 206.545 598.925 202.768 600.822C199.815 592.158 197.657 583.243 196.321 574.188C194.676 563.478 195.01 552.557 197.307 541.968C198.023 538.437 198.291 534.829 198.103 531.231C197.777 524.06 196.018 517.049 194.266 510.083L191.596 499.459C190.332 494.401 189.068 489.365 187.804 484.352C186.963 481.005 186.113 477.583 186.379 474.138C186.564 472.248 186.961 470.385 187.562 468.583C189.455 462.457 192.287 456.661 195.957 451.404C210.572 452.223 225.361 450.857 239.945 449.734C240.652 449.595 241.386 449.719 242.008 450.083C242.505 450.589 242.801 451.258 242.842 451.965L248.325 483.077C249.213 487.401 249.733 491.792 249.88 496.204C249.88 500.605 249.197 504.991 249.364 509.385C249.592 515.304 250.714 520.904 250.745 526.83Z" fill="#454B69"/>
<path opacity="0.1" d="M220.734 508.398C220.451 510.839 220.041 513.263 219.506 515.66C216.328 510.159 212.9 504.794 209.973 499.156C209.214 497.707 208.501 496.234 207.781 494.762L205.619 490.361C205.217 489.534 204.815 488.707 204.451 487.865C203.859 486.655 203.403 485.382 203.094 484.071C204.156 483.873 206.78 486.742 207.568 487.493C209.177 489.087 210.696 490.769 212.119 492.531C213.846 494.491 215.433 496.57 216.866 498.754C218.702 501.721 220.011 504.984 220.734 508.398Z" fill="#0C394E"/>
<path d="M232.907 357.462C232.907 357.462 224.792 370.4 226.294 373.109C227.795 375.818 200.735 370.704 200.735 370.704C200.735 370.704 215.471 357.766 213.962 352.348C212.453 346.93 232.907 357.462 232.907 357.462Z" fill="#EFB7B9"/>
<path d="M225.694 361.378C235.827 361.378 244.04 353.16 244.04 343.022C244.04 332.885 235.827 324.667 225.694 324.667C215.562 324.667 207.349 332.885 207.349 343.022C207.349 353.16 215.562 361.378 225.694 361.378Z" fill="#EFB7B9"/>
<path d="M233.18 371.03C231.215 368.303 228.55 366.158 225.467 364.823C223.69 364.186 221.853 363.734 219.984 363.472L212.665 362.182C210.875 361.864 208.956 361.568 207.288 362.304C206.444 362.737 205.676 363.303 205.013 363.981C202.472 366.341 200.007 368.928 196.814 370.294C195.942 370.666 195.032 370.939 194.16 371.311C190.588 372.828 187.918 376.061 186.409 379.658C184.816 383.406 184.771 387.481 184.892 391.556C184.89 392.963 185.03 394.366 185.309 395.745C185.674 397.058 186.138 398.341 186.697 399.584C187.705 402.244 188.551 404.963 189.23 407.726C191.126 414.986 192.704 422.321 193.963 429.732C194.069 430.794 194.381 431.824 194.88 432.767C195.587 433.711 196.443 434.534 197.413 435.203C198.183 435.835 198.892 436.539 199.529 437.305C199.847 437.618 200.084 438.003 200.219 438.428C200.455 439.521 199.461 440.462 198.703 441.258C197.071 442.925 195.891 444.98 195.275 447.23C194.894 447.692 194.7 448.279 194.729 448.877C194.887 449.293 194.946 449.739 194.903 450.182C194.754 450.585 194.518 450.95 194.213 451.252C193.863 451.708 193.614 452.234 193.484 452.794C193.353 453.354 193.343 453.936 193.454 454.5C199.139 456.971 205.223 458.395 211.414 458.704C212.93 458.779 214.447 458.779 215.964 458.962C217.041 459.098 218.103 459.318 219.18 459.447C220.742 459.594 222.313 459.634 223.882 459.569C232.05 459.402 240.453 459.197 247.954 455.957C248.659 452.109 247.135 448.186 246.179 444.392C244.662 438.322 244.283 432.107 243.145 425.983C242.387 421.802 241.249 417.682 240.605 413.471C239.96 409.259 239.846 404.896 240.969 400.798C241.993 397.171 242.303 393.468 243.365 389.849C244.427 386.229 245.17 382.306 243.972 378.724C242.455 374.293 237.852 370.78 233.18 371.03Z" fill="white"/>
<path d="M242.19 333.287C243.085 330.031 241.325 326.639 239.232 323.991C236.957 321.146 234.06 318.581 230.503 317.868C227.613 317.283 224.617 317.989 221.675 317.754C219.073 317.549 216.571 316.608 213.985 316.236C211.638 315.983 209.267 316.072 206.947 316.502C204.744 316.829 202.591 317.431 200.538 318.292C192.726 321.76 188.153 330.304 187.091 338.78C186.03 347.256 187.888 355.801 189.738 364.14L191.414 371.683C193.159 379.536 194.903 387.42 195.366 395.449C195.828 403.477 194.964 411.718 191.665 419.048C202.334 413.314 210.6 403.95 214.971 392.649C216.154 389.545 217.033 386.32 218.353 383.27C219.483 380.644 220.932 378.155 221.933 375.477C223.064 372.454 223.607 369.242 223.533 366.014C223.472 363.586 223.07 361.173 223.139 358.745C223.207 356.317 223.829 353.79 225.505 352.029C227.022 350.474 229.107 349.753 231.026 348.744C234.047 347.191 236.686 344.988 238.754 342.294C239.96 340.715 240.028 340.017 240.332 338.227C240.635 336.436 241.72 335.009 242.19 333.287Z" fill="#1B5C79"/>
<path d="M242.212 471.171C242.402 473.06 242.061 474.965 242.47 476.839C242.781 478.235 243.502 479.495 243.926 480.861C244.347 482.438 244.563 484.062 244.571 485.695C244.632 487.06 244.526 488.73 243.312 489.367C242.781 489.648 242.144 489.648 241.591 489.891C241.037 490.134 240.567 490.794 240.885 491.31C241.204 491.826 241.75 491.742 242.25 491.841C242.751 491.94 243.289 492.456 243.009 492.873C242.895 493.01 242.741 493.108 242.569 493.154C242.063 493.31 241.582 493.54 241.143 493.837C240.929 493.993 240.761 494.205 240.658 494.45C240.555 494.694 240.521 494.963 240.559 495.225C240.59 495.351 240.648 495.468 240.731 495.568C240.813 495.668 240.916 495.748 241.034 495.802C241.151 495.856 241.279 495.882 241.409 495.88C241.538 495.877 241.665 495.845 241.78 495.787C241.558 496.263 241.436 496.779 241.424 497.304C243.365 498.139 245.542 497.046 247.362 495.992C248.149 495.552 248.909 495.066 249.637 494.535C251.11 493.404 252.283 491.929 253.055 490.24C253.827 488.551 254.174 486.699 254.066 484.845C253.98 483.913 253.835 482.988 253.634 482.075C253.354 480.484 252.982 478.911 252.519 477.363C251.996 475.731 251.283 474.176 250.669 472.575C249.364 469.168 248.522 465.601 247.339 462.149C247.26 461.791 247.059 461.471 246.77 461.246C246.51 461.117 246.219 461.062 245.929 461.086C244.601 461.016 243.27 461.139 241.977 461.45C241.219 461.678 239.922 462.209 239.566 462.968C239.209 463.727 239.778 464.364 240.119 464.994C241.209 466.898 241.92 468.996 242.212 471.171Z" fill="#EFB7B9"/>
<path opacity="0.1" d="M240.976 378.967C241.366 379.366 241.693 379.822 241.947 380.318C244.556 385.061 244.586 390.729 244.708 396.139C244.844 402.21 245.178 408.28 245.512 414.389L246.505 432.6C246.604 434.338 246.695 436.076 246.945 437.798C248.113 438.094 248.158 439.612 248.029 440.833C247.188 448.255 245.102 455.896 247.271 463.036C247.355 463.403 247.529 463.742 247.779 464.023C246.678 463.677 245.499 463.662 244.389 463.977C243.305 464.205 242.258 464.607 241.166 464.858C239.786 465.169 238.223 465.305 237.283 466.375C236.217 463.168 235.368 459.893 234.742 456.571C234.226 453.536 234.082 450.41 232.854 447.602C232.361 446.471 231.693 445.424 231.087 444.339C227.909 438.663 226.347 432.251 224.822 425.923C224.138 422.923 223.974 419.827 224.337 416.771C224.557 415.378 224.684 413.971 224.716 412.56C224.624 411.071 224.429 409.59 224.132 408.129C223.488 403.838 223.791 399.458 225.019 395.297C226.157 391.435 227.158 387.367 229.57 384.12C231.982 380.872 236.949 379.02 240.976 378.967Z" fill="#0C394E"/>
<path d="M241.879 378.36C242.268 378.762 242.596 379.22 242.85 379.718C245.458 384.453 245.489 390.129 245.61 395.54C245.747 401.61 246.08 407.681 246.414 413.751L247.408 431.963C247.506 433.701 247.597 435.438 247.847 437.161C249.015 437.457 249.061 438.974 248.924 440.196C248.09 447.617 246.005 455.251 248.166 462.399C248.25 462.765 248.424 463.105 248.674 463.385C247.573 463.04 246.394 463.024 245.284 463.34C244.2 463.568 243.153 463.97 242.061 464.213C240.681 464.531 239.118 464.66 238.178 465.73C237.115 462.508 236.274 459.217 235.66 455.881C235.144 452.845 235 449.727 233.771 446.919C233.238 445.802 232.648 444.713 232.004 443.656C228.819 437.98 227.264 431.561 225.74 425.232C225.056 422.232 224.892 419.137 225.254 416.081C225.826 413.22 225.756 410.268 225.05 407.438C224.405 403.15 224.708 398.772 225.937 394.614C227.075 390.752 228.076 386.684 230.488 383.437C232.899 380.189 237.852 378.421 241.879 378.36Z" fill="white"/>
<g opacity="0.1">
<path opacity="0.1" d="M239.232 323.991C236.957 321.146 234.06 318.581 230.503 317.868C227.613 317.283 224.617 317.989 221.675 317.754C219.074 317.549 216.571 316.608 213.985 316.236C211.638 315.983 209.267 316.072 206.947 316.502C204.744 316.829 202.591 317.431 200.538 318.292C199.429 318.789 198.37 319.392 197.375 320.091C199.203 319.38 201.103 318.872 203.041 318.573C205.359 318.143 207.727 318.054 210.071 318.308C212.665 318.642 215.16 319.575 217.769 319.78C220.704 320.015 223.7 319.317 226.597 319.894C230.154 320.607 233.066 323.179 235.319 326.025C237.419 328.665 239.171 332.057 238.284 335.32C237.814 337.035 236.722 338.538 236.426 340.306C236.13 342.074 236.054 342.795 234.841 344.373C233.285 346.397 231.404 348.148 229.274 349.556C229.858 349.282 230.457 349.009 231.026 348.713C234.047 347.161 236.686 344.958 238.754 342.263C239.96 340.685 240.028 339.987 240.332 338.196C240.635 336.405 241.72 334.933 242.19 333.211C243.085 330.031 241.325 326.639 239.232 323.991Z" fill="#0C394E"/>
<path opacity="0.1" d="M225.505 352.075C225.819 351.749 226.162 351.452 226.529 351.187C224.777 352.037 222.934 352.781 221.591 354.222C219.915 355.975 219.316 358.51 219.225 360.938C219.134 363.366 219.566 365.779 219.62 368.2C219.694 371.43 219.151 374.644 218.019 377.67C217.018 380.348 215.57 382.83 214.44 385.463C213.128 388.498 212.248 391.731 211.065 394.834C207.273 404.632 200.541 413.014 191.794 418.828C191.748 418.927 191.71 419.033 191.665 419.131C202.334 413.397 210.6 404.033 214.971 392.732C216.154 389.629 217.033 386.404 218.353 383.353C219.483 380.728 220.932 378.239 221.933 375.56C223.064 372.537 223.607 369.325 223.533 366.098C223.472 363.67 223.07 361.257 223.139 358.828C223.207 356.4 223.829 353.835 225.505 352.075Z" fill="#0C394E"/>
</g>
<defs>
<linearGradient id="paint0_linear" x1="217.42" y1="624.421" x2="217.42" y2="313.383" gradientUnits="userSpaceOnUse">
<stop stop-color="#808080" stop-opacity="0.25"/>
<stop offset="0.54" stop-color="#808080" stop-opacity="0.12"/>
<stop offset="1" stop-color="#808080" stop-opacity="0.1"/>
</linearGradient>
</defs>
</svg>
